<?xml version="1.0" encoding="UTF-8"?>
<!DOCTYPE svg PUBLIC "-//W3C//DTD SVG 1.1//EN" "http://www.w3.org/Graphics/SVG/1.1/DTD/svg11.dtd">
<!-- Creator: CorelDRAW X7 -->
<svg xmlns="http://www.w3.org/2000/svg" xml:space="preserve" width="891px" height="442px" version="1.1" style="shape-rendering:geometricPrecision; text-rendering:geometricPrecision; image-rendering:optimizeQuality; fill-rule:evenodd; clip-rule:evenodd"
viewBox="0 0 92008468 45604454"
 xmlns:xlink="http://www.w3.org/1999/xlink">
 <defs>
  <style type="text/css">
   <![CDATA[
    .fil5 {fill:white}
    .fil2 {fill:#03A9F4;fill-rule:nonzero}
    .fil4 {fill:#CDDC39;fill-rule:nonzero}
    .fil3 {fill:#E91E63;fill-rule:nonzero}
    .fil1 {fill:#FFC107;fill-rule:nonzero}
    .fil0 {fill:white;fill-rule:nonzero}
   ]]>
  </style>
 </defs>
 <g id="Layer_x0020_1">
  <metadata id="CorelCorpID_0Corel-Layer"/>
  <g id="_2380144167936">
   <path class="fil0" d="M0 40605494c0,-1732543 512348,-3225072 1537288,-4477465 1024818,-1252514 2337214,-1878771 3937310,-1878771 271968,0 460150,2805 564668,8293 104641,5488 298067,19269 580401,41344 282334,22074 491615,63418 627477,124154 135862,60735 295383,146228 478443,256600 183060,110373 313678,259284 392219,446857 78297,187572 117690,408317 117690,662113 0,77321 -20977,165497 -62809,264894 -41831,99274 -99396,148911 -172571,148911 -177694,0 -496737,-85493 -956887,-256479 -460150,-171108 -820903,-256601 -1082382,-256601 -596134,0 -1322885,170986 -2180375,513080 -1359595,529666 -2039270,2030488 -2039270,4502344 0,22075 2684,91103 7928,206964 5122,115861 7805,184767 7805,206842 62809,22074 112324,110372 148911,264894 36710,154521 62809,322824 78542,504908 15610,181962 34026,295140 54881,339289 501982,1224830 1845721,1837306 4031462,1837306 282335,0 645649,-102080 1090188,-306238 444417,-204159 708457,-306238 792121,-306238 188182,0 282456,132447 282456,397341 0,320019 -28782,609671 -86347,868955 -57442,259406 -128056,389047 -211842,389047 -41832,0 -99274,-5488 -172449,-16586l-109885 0c-1108481,209647 -1981583,314531 -2619670,314531 -41832,0 -104518,-2805 -188182,-8293 -83541,-5488 -146350,-8293 -188182,-8293 -31465,55247 -112446,104884 -243185,149033 -130740,44149 -243186,66224 -337216,66224 -1108481,-88298 -2065368,-645649 -2870660,-1671930 -805293,-1026160 -1207878,-2135251 -1207878,-3327030zm3686320 3873282c-10489,132447 196109,231721 619671,297945 423440,66223 766022,99396 1027501,99396 418196,0 865296,-35856 1341056,-107689 475883,-71712 802732,-168181 980425,-289652l0 -314409c-867979,286847 -1511066,430270 -1929384,430270 -125496,0 -423562,-38539 -894079,-115861 -146472,-33051 -635404,-179279 -1466795,-438563 -831392,-259406 -1273248,-389048 -1325446,-389048l188182 -182084c-31343,-77200 -67931,-115860 -109762,-115860 -20977,0 -52321,5488 -94153,16586 -41831,10976 -73175,16586 -94030,16586 0,-132447 -2683,-223550 -7927,-273187 -5122,-49637 -36587,-107567 -94152,-173791 -57442,-66223 -149033,-99274 -274529,-99274 94274,-55247 162205,-154522 204037,-297945 -177816,0 -266723,-121471 -266723,-364168l-313678 0c41832,-33173 96713,-63541 164644,-91103 67931,-27563 120373,-55125 156839,-82688 36710,-27685 54881,-57930 54881,-91103 0,-132447 -31343,-264772 -94030,-397219 -104640,22074 -227452,96469 -368680,223428 -141106,126959 -211720,240014 -211720,339289 0,33172 33904,154521 101957,364168 68053,209647 107201,314531 117568,314531 73297,0 167449,-44149 282334,-132447 -73053,55247 -109763,126959 -109763,215257 0,165498 23538,317214 70614,455149 47076,137935 120373,262089 219648,372462 99396,110372 193426,201353 282334,273065 88908,71712 217086,146228 384291,223550 167327,77200 295506,132325 384414,165498 88907,33051 227452,80005 415634,140618 188182,60735 308556,102079 360754,124154l15732 0c20977,0 115007,-38539 282335,-115861zm-3090187 -3062257c0,66223 13050,151838 39149,256600 26221,104885 44515,157205 55003,157205l188183 0 501859 -513080 0 -115860c-522836,0 -784194,71711 -784194,215135zm627355 -827611c-94030,0 -203792,57930 -329288,173791 -125617,115860 -193548,234526 -203915,355875 156839,0 271846,-5488 345021,-16465 73297,-11098 149034,-46954 227453,-107689 78419,-60613 117568,-157205 117568,-289652 0,-22074 -23416,-46832 -70492,-74516 -47076,-27563 -75736,-41344 -86347,-41344zm-768583 -281359l0 99275c0,275870 68053,413805 203915,413805 125496,0 329410,-170986 611744,-513080l-815659 0zm956887 -1075918c-292822,0 -504542,41344 -635282,124154 -130739,82688 -196109,262089 -196109,537959l0 82688c10488,55247 15732,88298 15732,99396 543692,-353192 815659,-634550 815659,-844197zm-31465 430392c-282334,121348 -486127,259284 -611744,413805 20977,0 62809,2683 125617,8293 62687,5488 109763,8172 141106,8172 240624,0 360754,-88177 360754,-264773 0,-88298 -5123,-143423 -15733,-165497zm0 -1109091c-146228,0 -350265,171107 -611744,513201 10610,0 31465,0 62809,0 135861,0 240502,-5610 313799,-16586 73175,-11098 143789,-46954 211720,-107568 67931,-60735 101957,-157326 101957,-289773 0,-10976 -10366,-30246 -31343,-57931 -20855,-27562 -36588,-41343 -47198,-41343zm0 -297945l-501859 0c-73176,0 -109885,121349 -109885,364168l0 132447 611744 -397341 0 -99274zm376608 -711750c-125495,33050 -287700,165497 -486371,397219 20977,22074 67931,33172 141228,33172 104641,0 190865,-35855 258796,-107567 67931,-71834 101958,-162815 101958,-273187 0,-10977 0,-16587 0,-16587l-15611 -33050zm-47076 -347582c-115129,0 -235258,41344 -360753,124153 -125618,82688 -188304,173791 -188304,273066 0,11098 5244,27562 15732,49637 10367,-10976 46954,-30368 109763,-57930 62809,-27563 112446,-52443 149033,-74395 36588,-22075 78420,-49759 125496,-82810 46954,-33173 83663,-69029 109762,-107568 26100,-38660 39271,-80004 39271,-124153zm-250991 -281481l0 231844c135862,-99397 285018,-179402 446978,-240015 162205,-60735 269407,-107689 321605,-140740 52320,-33173 99396,-115861 141228,-248308 41832,-132447 62809,-336605 62809,-612476l-972620 1009695zm1678394 -1456551c-125373,0 -230014,44149 -313677,132447 -83664,88176 -125496,204037 -125496,347582 104519,0 203915,-52442 298067,-157326 94030,-104763 141106,-212330 141106,-322703zm250991 33051l-266602 413805c188182,-198548 282334,-320019 282334,-364168 0,-10976 0,-16464 0,-16464l-15732 -33173zm1223610 -314531c-146350,0 -355631,171108 -627477,513201 230014,-11098 454906,-182084 674553,-513201l-47076 0zm2949080 364168c0,110373 67931,165620 203915,165620l0 -529788c-135984,88298 -203915,209769 -203915,364168zm-3874623 -264772l94152 215135c512469,-386243 768704,-590401 768704,-612476l-172571 0c-83664,0 -219647,57930 -407951,173791 -188182,115983 -282334,190377 -282334,223550zm3466794 -182084c-62809,110372 -94274,226233 -94274,347582 94274,0 185743,-33051 274650,-99274 88908,-66224 133301,-149034 133301,-248308 0,-99396 -34026,-179401 -101957,-240015 -67931,-60735 -149034,-91103 -243186,-91103 -31343,0 -65369,41466 -101957,124154 -36588,82810 -54881,151717 -54881,206964l188304 0zm-1819622 -132447c-94274,0 -193548,104884 -298189,314531l47076 16464c31466,0 52320,0 62809,0 115007,0 214403,-104762 298067,-314409l-47076 -16586c-31466,0 -52321,0 -62687,0zm1505822 -99274c-94152,0 -180498,63418 -258796,190255 -78541,126959 -117690,234526 -117690,322824 115007,0 209159,-49637 282334,-148911 73175,-99396 120373,-215257 141106,-347704l-46954 -16464zm-737239 -82810l-376486 397219c52198,11098 83663,16586 94030,16586 83663,0 151716,-44149 204036,-132447 52199,-88298 78420,-182084 78420,-281358zm-1364838 0c0,88298 73297,193060 219647,314531l282334 -314531 -501981 0zm1913895 -33051c-62808,0 -122934,24758 -180376,74395 -57565,49759 -101958,93786 -133423,132447 -31343,38661 -47076,52442 -47076,41344 240502,0 360875,-82688 360875,-248186zm-1019573 33051l0 115860c83541,0 146228,-38660 188060,-115860l-188060 0z"/>
   <path id="1" class="fil0" d="M11960964 45157476l-1458990 -711751 -78297 0c-62809,0 -292945,-171107 -690286,-513201 -250991,-209647 -509787,-700652 -776510,-1473138 -266602,-772485 -400024,-1379351 -400024,-1820841 0,-77200 5366,-132325 15732,-165498 -20976,0 -41831,-16586 -62808,-49637 -20855,-33173 -31344,-60735 -31344,-82810 0,-143423 28783,-375144 86225,-695164 57565,-320019 91591,-524178 102079,-612476 115007,-1092504 360754,-1953166 737240,-2582228 376486,-628941 1003963,-1235928 1882308,-1820720 10489,0 15733,0 15733,0l31465 16465c83542,0 392097,-68907 925422,-206842 533325,-137935 878468,-206964 1035306,-206964l407830 0 486248 99397c324166,66101 671992,140618 1043234,223428 371242,82688 598695,140618 682358,173791 345143,154521 543813,259284 596134,314531 784315,838587 1320201,1555947 1607779,2151837 287579,595889 431490,1390449 431490,2383558 0,353070 -23660,697969 -70614,1034574 -47076,336484 -120373,747606 -219648,1233123 -99396,485517 -164644,800049 -196109,943472 -20977,132447 -88908,273187 -203915,422098 -115129,149034 -172571,311848 -172571,488323 0,66223 -5122,104884 -15733,115860 -543691,1026281 -1835354,1539483 -3874501,1539483l-1835233 -198670zm2227329 -397219l0 198548 376609 -198548 -376609 0zm-2227329 -215257c0,11098 15611,30367 46954,57930 31344,27563 52320,41466 62809,41466 219647,0 329410,-77322 329410,-231843l-94274 0c-209037,0 -324044,44149 -344899,132447zm5317638 -1224830c-240503,10976 -389536,30246 -447101,57930 -57564,27563 -101957,99274 -133300,215135 -31344,115861 -94152,229038 -188182,339289 -261601,309043 -685042,546252 -1270687,711872 637844,0 1220928,-259406 1749008,-777974 528081,-518690 792243,-1120067 792243,-1804255 -407951,0 -611744,176474 -611744,529666l313677 0c-31343,55126 -120251,107568 -266723,157205 -146350,49637 -224770,124154 -235258,223428 0,22074 99396,137935 298067,347704zm-5960847 231721c115007,0 190743,16465 227452,49637 36588,33051 75859,82810 117690,148912 41832,66223 104519,126959 188061,182084 125617,66223 319043,113177 580522,140740 261358,27563 454906,80005 580401,157205 41832,0 151595,2805 329410,8293 177694,5610 277090,8293 298067,8293 972498,0 1683638,-140618 2133299,-422099 449661,-281358 789560,-863466 1019696,-1746324 0,-66224 2561,-275871 7805,-628941 5244,-353192 7805,-562838 7805,-629062 0,-496493 0,-811024 0,-943471 0,-132447 -15610,-433075 -47076,-902128 -31343,-468931 -80980,-816634 -148911,-1042868 -67931,-226111 -175254,-493810 -321727,-802731 -146228,-309043 -329288,-562839 -548935,-761387 -10367,10976 -31344,16464 -62809,16464 -41832,0 -318921,-90981 -831269,-273065 -512470,-182084 -800049,-273187 -862857,-273187 -94030,0 -222209,38661 -384292,115860 -162083,77322 -284895,115983 -368680,115983 -62687,0 -122813,-19391 -180377,-58052 -57443,-38539 -112324,-57931 -164644,-57931 -794804,0 -1487651,402830 -2078418,1208366 -590889,805658 -886395,1627659 -886395,2466368 0,264894 70614,844197 211842,1738031 141106,893835 274529,1340813 400024,1340813 10367,0 41832,-2805 94030,-8293 52321,-5488 88908,-8293 109885,-8293 41832,0 78419,35855 109763,107567 31465,71712 47076,140740 47076,206964 20855,44149 65369,110372 133300,198670 68053,88176 133423,165498 196110,231721 62686,66224 94152,104763 94152,115861zm-627477 264772l0 132447c104640,0 172571,-44149 203915,-132447l-203915 0zm-784316 -595889c0,66223 47076,171107 141106,314531 94274,143423 162205,215135 204037,215135 115007,0 172572,-176474 172572,-529666l-517715 0zm109763 -628941c-146350,22075 -219525,99275 -219525,231722 156838,0 235258,-55126 235258,-165498 0,-11098 -2561,-22075 -7806,-33173 -5366,-10976 -7927,-22074 -7927,-33051zm-674431 -82810c73175,44149 109763,110373 109763,198671l188182 -198671c0,-22074 -15611,-46832 -47076,-74516 -31343,-27563 -52198,-41344 -62687,-41344 -52320,0 -115007,38661 -188182,115860zm501982 -728336c-94274,0 -162205,33173 -204037,99396l204037 0 0 -99396zm7545088 -198549c0,33051 -20855,85493 -62686,157205 -41832,71712 -62809,129642 -62809,173791 177815,0 277212,-44149 298067,-132447 0,11098 15732,30368 47076,57930 31465,27685 52320,41466 62686,41466 334777,0 501982,-491127 501982,-1473259 0,-22075 -2561,-66224 -7806,-132447 -5244,-66102 -7805,-104763 -7805,-115861l-1035306 248308 360753 364168c-52320,0 -117690,16586 -196109,49637 -78419,33173 -117568,66224 -117568,99396 0,88298 73053,132325 219525,132325 41832,0 115007,-13781 219648,-41344 104518,-27562 188182,-41344 250990,-41344 -31465,66224 -138545,121349 -321604,165498 -182938,44149 -274529,121349 -274529,231721 0,55248 20977,102080 62809,140741 41831,38661 62686,63418 62686,74516zm-7858888 -927007c-104518,0 -230014,132447 -376486,397219l78542 0c62564,11099 99274,16587 109762,16587 198671,0 297945,-66224 297945,-198671 0,-143423 -36588,-215135 -109763,-215135zm-156838 -579303c-282456,10976 -423562,182084 -423562,513080 135983,0 240502,-49637 313677,-148912 73175,-99396 109885,-220745 109885,-364168zm7905964 -248308c73175,88298 188304,132447 345142,132447l156839 0c313799,0 470638,-66223 470638,-198670 0,-286969 -41954,-430392 -125617,-430392 -115007,0 -266602,57931 -454906,173791 -188182,115861 -318921,223550 -392096,322824zm580400 -761387l-690163 0c0,253796 52198,380633 156839,380633 135861,0 308433,-66224 517592,-198549 209159,-132447 313799,-275992 313799,-430391 0,-209647 -31465,-380755 -94152,-513202 -250991,0 -575157,171108 -972619,513202l768704 248307zm-8768820 -264894c0,253796 -41832,430392 -125496,529666 10611,0 26099,2805 47076,8293 20977,5489 36588,8294 47198,8294 73175,0 159400,-24880 258796,-74517 99275,-49637 148912,-118666 148912,-206842 0,-66223 -47076,-126959 -141106,-182084 -94030,-55247 -172572,-82810 -235380,-82810zm251112 -380754l188182 99396c83664,0 125496,-77322 125496,-231722 -177816,0 -282334,44028 -313678,132326zm7654973 0l188183 99396c83785,0 245746,-71712 486248,-215257 -397341,0 -622232,38661 -674431,115861zm78420 -413806c10366,11098 31343,33173 62687,66224l47076 33172 784315 0c0,-231843 -67931,-529788 -203915,-893956 -135983,-364046 -308555,-546130 -517592,-546130 -62808,0 -154277,74394 -274650,223428 -120130,148911 -180255,245502 -180255,289651 0,33051 36587,80005 109762,140740 73176,60614 120252,90982 141107,90982 20976,0 36709,-5489 47076,-16587 -73176,132447 -109763,248308 -109763,347704 62687,0 135984,-33173 219525,-99396 83786,-66224 162205,-99274 235380,-99274l-78419 99274c-62687,55247 -125495,121471 -188182,198670 -62809,77200 -94152,132447 -94152,165498zm-7623630 -413805c-94152,0 -141228,110372 -141228,331117 167327,0 308433,-38661 423562,-115860 -20855,-44149 -67931,-91103 -141228,-140741 -73175,-49637 -120129,-74516 -141106,-74516zm470516 -1009695c-41710,0 -86225,41344 -133301,124154 -46954,82809 -70614,146228 -70614,190377 156839,0 324288,-38661 501982,-115861 -10367,-33172 -57443,-74516 -141106,-124154 -83664,-49637 -135984,-74516 -156961,-74516zm6588446 -215135c0,88176 23416,179279 70492,273065 47076,93786 107201,140740 180376,140740 83664,0 159522,-33172 227453,-99396 68053,-66223 101958,-137935 101958,-215135 0,-121349 -99275,-182084 -297945,-182084 -439295,-485517 -752972,-827611 -941276,-1026281 -167328,-176596 -561986,-308921 -1184340,-397219 -622233,-88298 -1142386,-132447 -1560826,-132447 -439173,0 -658698,104762 -658698,314531 -73175,-132447 -151716,-198671 -235380,-198671 -31343,0 -138545,49637 -321483,148912 -183060,99396 -360875,195987 -533447,289773 -172571,93786 -258796,146229 -258796,157205l188182 165498 -596011 0 0 33172c73175,286847 250869,430392 533325,430392 146350,0 266723,-71834 360753,-215257 -31343,-10976 -73175,-41344 -125495,-90981 -52198,-49759 -78420,-85615 -78420,-107689 0,-77200 31344,-148912 94152,-215135 62687,0 130740,22074 204037,66223 73053,44149 161961,66224 266602,66224 115006,0 198670,-5488 250868,-16587 52321,-10976 109763,-49637 172572,-115860 62808,-66224 120373,-165498 172571,-297945 10489,88298 88908,132447 235258,132447 554302,0 831514,-110372 831514,-331117l94030 198670 -15733 16586c62809,0 177816,-44149 345143,-132447 209159,297945 486371,446857 831391,446857 146351,0 240625,-44027 282456,-132325 125374,364168 580279,706262 1364717,1026281zm-6290379 -99396c41832,44149 99396,91103 172571,140740 73297,49637 138545,88298 196110,115860 57442,27563 91469,46833 101957,57931 31343,0 73175,-30368 125495,-91103 52321,-60614 78420,-101958 78420,-124032 -198671,-66224 -423562,-99396 -674553,-99396z"/>
   <path id="2" class="fil0" d="M19560812 45008442c-10366,-10976 -26099,-60613 -46954,-148911l-47076 -149034c261479,-1280077 392219,-2350385 392219,-3211169 0,-55125 -2683,-149033 -7927,-281358 -5245,-132447 -7806,-226233 -7806,-281480l596134 -3691198c0,-419294 62686,-1026282 188182,-1820842 0,-22074 2561,-90981 7805,-206841 5244,-115861 13050,-226233 23538,-331118 10489,-104762 28782,-215135 54881,-330995 26222,-115861 68053,-206964 125618,-273188 57442,-66223 128056,-99274 211720,-99274l156839 49637c94030,44149 162082,66224 203914,66224l125496 -66224c83663,-33050 130617,-49637 141228,-49637 240502,77200 747606,868955 1521555,2375265 773827,1506310 1270564,2353313 1490211,2540885 125496,-99274 248308,-259284 368559,-480029 120373,-220745 237941,-466248 352948,-736630 115007,-270382 198671,-449661 251113,-537959 20855,-44149 135862,-234404 345021,-571010 209159,-336606 318921,-515885 329410,-537959 345143,-606988 637843,-1219464 878345,-1837428 83786,-209647 324288,-314409 721751,-314409 156839,0 316239,41344 478322,124154 162205,82688 243185,217940 243185,405512 0,10976 -2683,30368 -7927,57930 -5123,27563 -7806,52442 -7806,74517 0,10976 2683,33051 7806,66102 5244,33172 7927,60735 7927,82809 62809,629063 219525,1688395 470638,3178119 250869,1489723 413074,2985057 486249,4485758 10488,187694 49637,502103 117568,943593 68053,441368 101957,777974 101957,1009695 0,165498 -10366,292457 -31343,380633 -20855,88298 -70614,149033 -148911,182084 -78542,33172 -141228,52442 -188304,57930 -47076,5610 -143790,8293 -290140,8293 -669308,0 -1003963,-126837 -1003963,-380632l94030 -662113c-62686,-617965 -94030,-1368376 -94030,-2251234 0,-143423 -31465,-433074 -94152,-868954 -62808,-435880 -125495,-838709 -188182,-1208366 -62809,-369656 -99396,-560034 -109763,-571132l-94274 -99274c0,-1291053 -62686,-1936702 -188182,-1936702l-203914 0 0 397341c0,22074 -107202,286846 -321605,794438 -214281,507714 -462711,1092505 -745045,1754618 -282334,662113 -507226,1175315 -674553,1539483 -20855,33051 -54881,110250 -102079,231721 -46954,121349 -86225,217940 -117446,289652 -31465,71711 -81225,140618 -149155,206841 -67931,66224 -143790,99397 -227453,99397 -470638,0 -716263,-242820 -737240,-728337 -1118848,-1975363 -1829988,-3443012 -2133299,-4403070 -10488,0 -47076,-33051 -109763,-99274 -20977,176596 -83663,551740 -188304,1125555 0,286969 -52198,766998 -156838,1440087 -104641,673211 -156961,1169705 -156961,1489724 0,154521 5366,270382 15733,347704l-486249 3476063c-20977,154399 -162205,231721 -423562,231721 -365998,0 -705896,-115861 -1019696,-347704zm486371 -496493c0,198548 130739,297945 392219,297945 135861,0 203792,-176596 203792,-529666 0,-55248 -2561,-126959 -7805,-215257 -5244,-88298 -7805,-143423 -7805,-165498l-172572 0 -15610 -99274c41831,-132447 67931,-204159 78297,-215257 -313677,0 -470516,309043 -470516,927007zm8839313 -1158728c-78542,55125 -117690,115860 -117690,182084 0,66223 31465,259284 94152,579303 62686,320019 94152,485639 94152,496615 156838,-22074 261479,-52442 313677,-90981 52320,-38661 78420,-107689 78420,-206964 0,-187572 -20855,-408317 -62687,-662113 -41832,-253795 -104641,-380754 -188304,-380754 -62809,0 -133301,27684 -211720,82810zm-8666742 49637c219648,0 379047,-96469 478444,-289652 99396,-193060 149033,-411000 149033,-653820 0,-22074 -2683,-74516 -7805,-157204 -5366,-82810 -7928,-129764 -7928,-140740l-203914 99274 0 -132325c-188182,0 -303311,93786 -345143,281358 -41710,187572 -62687,518690 -62687,993109zm8549052 -314531l0 115982c156838,0 251112,-38661 282334,-115982l-282334 0zm376486 -645527c-104519,0 -203915,44149 -297945,132447 -94274,88298 -141228,187572 -141228,297945l439173 0 0 -430392zm-376486 -281358l0 297944 282334 -297944 -282334 0zm-8141222 -513080c0,33051 -26221,90981 -78420,173791 -52320,82688 -88907,124154 -109762,124154 386974,0 580278,-253918 580278,-761510 0,-286846 -47076,-460637 -141106,-521373 -94152,-60735 -313799,-91103 -658820,-91103 0,209769 36588,469053 109763,777974 0,11098 47076,58052 141228,140740 94030,82810 146350,135252 156839,157327zm8031459 148911c0,121349 130740,182084 392097,182084l0 -629062c-261357,88298 -392097,237331 -392097,446978zm-3639244 -463442c-177815,77199 -266723,198548 -266723,364168 31343,0 62809,-8293 94152,-24880 31465,-16586 60126,-38660 86347,-66223 26099,-27563 46954,-52442 62564,-74517 15733,-22074 34149,-55125 55126,-99274 20733,-44149 31221,-71712 31221,-82810l-62687 -16464zm-235380 -182084c-41831,0 -88785,13781 -141106,41344 -52320,27562 -78419,52442 -78419,74516l15733 16587c10366,22074 15610,44149 15610,66101 31344,0 73175,-24757 125496,-74395 52320,-49637 78419,-80004 78419,-91103l-15733 -33050zm3874624 66223l0 132325c94030,0 156839,-44027 188304,-132325l-188304 0zm-3686320 -794560c-407829,242820 -611744,457954 -611744,645527 418318,0 755534,-115861 1011769,-347582 256234,-231721 384291,-568327 384291,-1009695 -104640,55125 -203915,82688 -298067,82688 20855,0 60248,-24758 117690,-74395 57565,-49759 86347,-91103 86347,-124154 0,-22074 -18416,-66223 -55003,-132447 -36588,-66223 -54882,-121349 -54882,-165498l329410 99275c125496,0 188304,-137935 188304,-413806l-313799 0c10488,-11098 57564,-55125 141228,-132447 83542,-77199 146350,-137935 188182,-182084 41832,-44149 104519,-113055 188304,-206842 83664,-93786 146350,-173791 188182,-240014 41832,-66224 81103,-143545 117690,-231721 36466,-88298 54882,-171108 54882,-248308 -219526,0 -420880,60613 -603939,182084 -183060,121349 -274529,286847 -274529,496494 0,44149 62809,99396 188304,165619 -115129,22075 -227453,88176 -337337,198549 -109763,110372 -190866,206963 -243186,289651 -52198,82810 -128056,217940 -227452,405635 -99397,187572 -154278,292334 -164645,314409l203915 132447c-73175,66223 -258796,113177 -556863,140740 -298066,27563 -467955,113056 -509786,256601l109762 99274c10489,-11098 49637,-22074 117690,-33173 67931,-10976 141228,-24757 219526,-41344 78541,-16586 122934,-24757 133422,-24757 20855,0 67931,2683 141106,8171 73298,5610 120374,8293 141228,8293l0 82810zm3576557 330996c0,242819 135862,364168 407830,364168l0 -612354c-115007,0 -250991,82688 -407830,248186zm-4109881 -248186c-156839,0 -235380,60613 -235380,182084l15732 33051c146473,0 219648,-71712 219648,-215135zm-3435329 -281480c-292823,0 -439295,93786 -439295,281480 365998,0 549058,-77322 549058,-231843 0,-33051 -36588,-49637 -109763,-49637zm7545210 -115861l0 331117c177694,0 313678,-71711 407830,-215256 -10489,0 -67931,-19270 -172572,-57931 -104640,-38539 -183059,-57930 -235258,-57930zm-7717782 -182084c-261357,0 -392096,27562 -392096,82810l0 215135c31343,0 125373,-33051 282334,-99275 156838,-66223 250868,-104884 282334,-115860 -20977,-55248 -78420,-82810 -172572,-82810zm3074576 0l0 231721c209037,0 334654,-77200 376486,-231721l-376486 0zm4564665 0c73297,55247 198792,82810 376608,82810 94030,0 141106,-143424 141106,-430392 -355509,0 -533325,93786 -533325,281358l0 33173 15611 33051zm-7953040 -215135l596134 82688c73175,0 109884,-66102 109884,-198549 0,-99396 -36709,-165620 -109884,-198670 -334655,88298 -533325,193060 -596134,314531zm3764861 -115861c0,-22074 -28782,-60735 -86225,-115860 -57564,-55248 -102079,-88298 -133422,-99397 -31466,0 -86347,41466 -164645,124154 -78541,82810 -133422,151717 -164766,206964 10367,0 41832,5488 94152,16586l78420 0c188182,0 313677,-44149 376486,-132447zm4094149 -397341l0 314531c261357,-44149 392097,-93786 392097,-148911 0,-121471 -99275,-182084 -298067,-182084l-94030 16464zm-7859010 0l0 215257c136106,0 266723,-38661 392219,-115861 -10489,-77321 -68053,-115860 -172572,-115860 -10366,0 -41709,2683 -94152,8171 -52198,5610 -94030,8293 -125495,8293zm2807974 0l-15733 33173 0 33051c0,110372 88908,165497 266602,165497 251112,0 392340,-77199 423562,-231721l-674431 0zm-2698089 -297945c10488,66224 83663,99397 219647,99397 313678,0 470516,-66224 470516,-198671 0,-11098 -10366,-49637 -31343,-115860l-564668 -314532 -94152 264894 282334 0c-31344,110373 -125496,198549 -282334,264772zm3105918 -215134c-115128,0 -217086,30367 -305872,90981 -88907,60735 -133422,140740 -133422,240014 313799,0 517714,-82688 611866,-248186 -20977,-55247 -78420,-82809 -172572,-82809zm4517712 82809c0,176474 135983,264772 407829,264772l0 -562716c-94030,0 -185621,27562 -274529,82688 -88908,55247 -133300,126958 -133300,215256zm-5129578 -297944c0,143423 36710,215135 109885,215135 219647,0 329410,-71712 329410,-215135l-439295 0zm5051158 -99397l94030 99397c83786,-44149 125618,-115983 125618,-215257 -83664,0 -156839,38661 -219648,115860zm-7372761 -314531c0,231843 183060,347704 549180,347704 0,-275870 -36710,-471858 -109885,-587718 -73175,-115861 -224892,-173791 -454906,-173791 0,110372 73176,187694 219648,231721 -135984,0 -204037,60735 -204037,182084zm2729555 -16464c-209159,0 -313678,77200 -313678,231721l313678 0 0 -231721zm4627474 -16587c0,22075 5244,33051 15732,33051l376486 132447 0 -347582c-261479,0 -392218,60736 -392218,182084zm-5207875 -49637l0 115861c31343,0 78419,-19269 141106,-57930 62809,-38661 109885,-57931 141228,-57931l-282334 0zm109885 -629062c-219770,154522 -329532,297945 -329532,430392 198792,0 365997,-38661 501981,-115861 -41832,-132447 -99396,-237209 -172449,-314531zm4799923 115861c0,55247 31465,118665 94152,190377 62687,71712 115007,107567 156961,107567 135861,0 256112,-66223 360631,-198548 -313677,-66224 -517592,-99396 -611744,-99396zm-1427403 -215135c-94152,0 -167327,49637 -219648,148911 -52198,99396 -78541,204159 -78541,314531 125617,0 324288,-77199 596256,-231721 -94152,-132447 -193549,-209647 -298067,-231721zm-5521674 99274c20855,11098 75736,52442 164644,124154 89030,71712 143911,107567 164766,107567 219647,0 329410,-198548 329410,-595889 -156839,0 -287456,-27563 -392097,-82688 -104640,-55247 -193548,-82810 -266723,-82810l0 529666zm5694123 -182084c41832,66223 120373,99396 235380,99396 83664,0 172572,-33173 266602,-99396 0,-22075 -13050,-46832 -39149,-74395 -26099,-27684 -44393,-41466 -54881,-41466 -83664,0 -219648,38661 -407952,115861zm894200 -413805c62687,44149 112446,96591 149034,157326 36587,60613 60125,115861 70614,165498 10366,49637 39148,93786 86224,132447 47076,38539 117690,57930 211721,57930 303310,0 454905,-33173 454905,-99396 0,-77200 -31343,-182084 -94030,-314409l-203915 -2135373 -94152 -16586c-271845,0 -533325,171108 -784315,513202 31465,99274 143789,165497 337215,198670 193548,33051 311116,66102 352948,99274 -62687,110373 -201353,204159 -415635,281359 -214403,77321 -332093,171108 -353070,281480l768705 0 94152 165498c-62808,33051 -235380,77200 -517714,132447 -282334,55125 -528080,126837 -737239,215135 -209037,88298 -313678,193060 -313678,314531 0,10976 0,16464 0,16464l15733 33173 376364 -99274 -62687 -99396c250991,-66224 470638,-99275 658820,-99275l94152 0 -94152 99275zm-5411789 297944l235258 132447c20977,0 104519,-77199 250991,-231721 -10489,0 -47076,0 -109885,0l-94030 -16586c-177693,0 -271967,38661 -282334,115860zm-878467 -397219c10488,66224 62686,99275 156838,99275 94152,0 154278,0 180377,0 26099,0 65370,-10977 117690,-33051 52320,-22075 94030,-55247 125495,-99396 31344,-44149 62687,-104763 94030,-182085 -115007,0 -339776,71834 -674430,215257zm1254831 -314531c-230014,176596 -392097,314531 -486127,413806l141106 0c365998,0 548936,-55126 548936,-165498 0,-22075 -67931,-104885 -203915,-248308zm5615826 99274l0 99397 -297945 0 297945 -99397zm-1066649 -215135c-104641,0 -162083,38661 -172572,115861l454906 0c-73175,-77200 -167327,-115861 -282334,-115861zm-5521674 -281358c0,10976 23538,35856 70614,74395 47076,38661 70614,69028 70614,91103 0,22074 -5367,38661 -15733,49637 73175,0 185621,-46832 337215,-140740 151717,-93786 227453,-173791 227453,-240015 0,-77199 -52198,-140618 -156839,-190255 -104518,-49759 -198670,-74517 -282334,-74517 -146350,0 -308433,38661 -486370,115861 -177694,77200 -266602,187572 -266602,330995 73175,0 180377,-33050 321605,-99274 141228,-66223 237941,-104762 290139,-115860 -10366,0 -31343,27562 -62686,82809 -31344,55126 -47076,93787 -47076,115861zm5804008 -430392c-125496,0 -188304,77200 -188304,231722 177937,0 308555,-44149 392218,-132447 -20855,-66224 -88907,-99275 -203914,-99275zm-6290257 -794560l0 513202c20977,0 78419,-19392 172571,-57930 94030,-38661 172572,-57931 235258,-57931 10489,88176 141106,132325 392219,132325 0,-154399 -67931,-231721 -204037,-231721l0 -215135c-73175,-55247 -271845,-82810 -596011,-82810z"/>
   <path id="3" class="fil0" d="M36196326 45074666c-73175,0 -175254,2805 -305872,8293 -130739,5488 -222208,8293 -274529,8293 -700652,0 -1228854,-60735 -1584363,-182084 -355510,-121349 -731996,-424782 -1129337,-910421 -449783,-540642 -747850,-1053844 -894078,-1539361l-15733 -182084c-10610,-110372 -28782,-220745 -55003,-330995 -26099,-110373 -65370,-176596 -117568,-198671 10367,0 46954,-33173 109763,-99274 0,-772486 -49637,-1953289 -149034,-3542287 -99274,-1589120 -149033,-2769923 -149033,-3542286 0,-198671 282334,-297945 847002,-297945 397463,0 596256,99274 596256,297945 -188304,606866 -282456,1566923 -282456,2880173 0,463443 62808,772364 188304,926885 0,44149 2561,165498 7805,364169 5244,198670 7805,314531 7805,347582 0,286968 -15610,529666 -47076,728336 -31221,198671 -46954,331118 -46954,397341 0,165498 49638,424782 148912,777974 99396,353070 149155,612354 149155,777973 0,88177 -5366,148912 -15733,182085l878346 1224829c31465,33173 120373,85493 266723,157205 146473,71834 245747,151838 298067,240015 230014,0 622233,58052 1176534,173912 554180,115861 956765,173791 1207878,173791 240502,0 420879,-19391 541130,-57930 120251,-38661 216964,-135252 290140,-289773 449783,-573816 739922,-1128239 870662,-1663515 130739,-535154 195987,-1216537 195987,-2044270 0,-529666 -20855,-1263490 -62687,-2201474 -41831,-937983 -62808,-1649733 -62808,-2135250 0,-772486 136106,-1158729 407951,-1158729 94152,88298 412952,132447 956765,132447l94274 99275c0,220745 15611,529666 46954,927007 31344,397219 47076,695163 47076,893834 -31343,728337 -62808,1241416 -94030,1539361 73053,143423 109763,336606 109763,579303 0,88298 -18416,209769 -54882,364168 -36709,154522 -54881,281481 -54881,380755 0,99274 15611,237209 46954,413805 31344,176596 47076,314532 47076,413806 -94030,1776692 -287578,2973959 -580401,3591924 -41831,88298 -96713,193182 -164766,314531 -67931,121348 -135861,231721 -203792,331117 -68053,99274 -101958,154400 -101958,165498 -94152,-55247 -193548,-27563 -298066,82688 -83664,121471 -188305,187694 -313800,198670 -125373,11099 -219647,82810 -282334,215135l-1537288 231843c-73175,0 -141106,-22074 -203914,-66223 -62687,-44149 -125496,-66224 -188304,-66224 -104519,0 -193427,38661 -266602,115861l0 -149033zm-2133421 -662113c282456,264894 847246,397341 1694248,397341 125374,0 256235,-19392 392097,-57931 135984,-38660 240624,-57930 313678,-57930 115128,0 290261,22075 525519,66224 235380,44149 415757,66223 541130,66223 188304,0 402707,-60735 643210,-182084 240502,-121471 413073,-198671 517714,-231843 -20977,-33051 -122934,-93786 -305994,-182084 -182938,-88176 -321483,-132325 -415635,-132325 -52320,0 -235258,60613 -549057,182084 -313678,121348 -496738,198548 -548936,231721 0,-11098 5122,-27563 15733,-49637 0,-44149 -20977,-85615 -62809,-124154 -41832,-38661 -78419,-57930 -109763,-57930 -52442,0 -120373,22074 -204036,66223 -83542,44027 -162083,66102 -235136,66102l94030 -132325 -94030 0c-31466,0 -151717,41344 -360876,124153 -209159,82688 -339898,146107 -392097,190256 0,-209647 -57564,-314409 -172571,-314409 -52442,0 -135984,16464 -251113,49637 -115007,33051 -203792,49637 -266601,49637l0 -314531c-135862,0 -300628,24879 -494054,74516 -193549,49638 -290262,118666 -290262,206964 10367,33051 15611,55125 15611,66102zm-1474479 -1638636c0,143424 120251,400025 360753,769681 240503,369656 491615,554546 752973,554546 73175,0 154277,-24880 243185,-74517 88908,-49637 133301,-113178 133301,-190377 0,-99275 -78420,-148912 -235258,-148912 -41954,0 -94152,5488 -156839,16465l-109885 16586 0 -496615 -501859 0c114885,0 209159,-44149 282334,-132447 73175,-88176 109763,-193061 109763,-314410l-188305 0c-31343,-132447 -112323,-270382 -243063,-413805 -130740,-143545 -211842,-248308 -243185,-314531 -31344,-55247 -49637,-132447 -54882,-231721 -5122,-99397 -28782,-171108 -70614,-215257 -41831,-44149 -130739,-66224 -266601,-66224 -135984,0 -204037,71834 -204037,215257 0,77200 34027,184767 102080,322702 67930,138058 101957,267700 101957,389048 20855,0 117690,16587 290261,49637 172450,33173 269285,49638 290140,49638l-392219 215256zm5694123 1175193c188304,0 332094,27563 431490,82810 99274,55125 190865,82688 274529,82688 73175,0 143789,-27563 211720,-82688 67931,-55247 101957,-121471 101957,-198670 0,-88298 -88908,-154522 -266601,-198671 -177816,-44149 -324288,-66223 -439295,-66223 -41832,0 -104519,49759 -188182,149033 -83664,99274 -125618,176596 -125618,231721zm407952 -579303c94030,0 206476,19269 337215,57930 130740,38661 237941,57931 321483,57931 83786,0 149155,-46954 196231,-140741 46954,-93786 70614,-184767 70614,-273065l-831513 0c0,99274 36709,170986 109763,215135l-203793 82810zm298067 -595890l674430 82688c31344,0 70614,-44149 117690,-132325 47076,-88298 70614,-176596 70614,-264894l-125495 -16586c-31465,0 -162205,30368 -392097,91103 -230136,60613 -345142,102079 -345142,124154l0 115860zm376364 -413805c0,-33173 -46954,-49759 -141106,-49759 -104519,0 -156961,16586 -156961,49759 31465,33051 83663,49637 156961,49637 73175,0 120251,-16586 141106,-49637zm486370 -927007c-470638,331117 -705896,573815 -705896,728337l705896 0 0 -728337zm-188304 -248308l-533324 0 15732 132447c10489,77200 26099,151717 47076,223428 20855,71712 52320,107690 94152,107690 292701,0 548936,-413928 768583,-1241538 -125495,-66224 -292822,-99275 -501981,-99275 -188304,0 -282334,77200 -282334,231722 177693,0 308433,-44149 392096,-132447l15733 66223 15611 0c0,22075 -49515,91103 -148912,206964 -99396,115860 -185621,201353 -258796,256479 20855,44149 146351,126959 376364,248307zm-7466791 -430391c0,220745 36710,380754 109885,480028 73175,99397 209159,149034 407829,149034 0,-66224 -20977,-160010 -62808,-281359 -41832,-121470 -62687,-215256 -62687,-281480 0,-110372 18294,-270382 54881,-480029 36588,-209647 55004,-364168 55004,-463442 0,-110373 -18416,-209647 -55004,-297945 -36587,-88298 -54881,-176596 -54881,-264894 0,-209647 31465,-590280 94152,-1142142l-564668 629062c0,132447 94030,226233 282334,281359 -125495,55247 -204037,115860 -235380,182084 -31343,66223 -46954,187572 -46954,364168 0,121349 36465,182084 109763,182084 31343,0 57442,-5488 78419,-16586 -20977,22074 -36588,44149 -47076,66223 -10367,22075 -18294,46954 -23416,74517 -5366,27563 -10611,49637 -15733,66223 -5244,16587 -7927,30368 -7927,41344l-15733 16587c0,88298 68053,170986 204037,248307 -135984,55126 -204037,204159 -204037,446857zm7074695 -794439c0,99275 99274,148912 298066,148912 94030,0 164644,-2683 211720,-8293 47076,-5488 91591,-33051 133423,-82688 41710,-49637 62565,-118666 62565,-206964 0,-209647 -57443,-314531 -172450,-314531l-125495 66223c-94152,44149 -185621,104885 -274407,182085 -89029,77321 -133422,149033 -133422,215256zm0 -662113c0,143424 47076,215135 141106,215135 31465,0 130739,-68906 298066,-206841 167328,-137936 250991,-212452 250991,-223550l0 -1009695c-460150,342093 -690163,557350 -690163,645526 0,55248 44393,121471 133422,198671 88786,77200 133179,143423 133179,198670 -10366,0 -36588,0 -78297,0 -41832,0 -68053,0 -78542,0 -10488,0 -28782,5488 -54881,16465 -26099,11098 -41832,30367 -47076,57930 -5244,27685 -7805,63540 -7805,107689zm-6964810 -1440086c0,33050 -18294,88298 -55003,165497 -36466,77200 -54882,143424 -54882,198671 0,10976 5366,38539 15733,82688l0 66223c251113,-198670 376486,-435880 376486,-711750 0,-55125 -26099,-157204 -78419,-306238 -52321,-148911 -104519,-223428 -156839,-223428 -31465,0 -78419,55125 -141228,165498 -62687,110372 -94030,198670 -94030,264894 0,10976 31343,60613 94030,148911 62809,88298 94152,137935 94152,149034zm7592286 -99397c-10488,0 -34026,0 -70614,0 -36709,0 -62808,0 -78541,0 -15611,0 -41710,0 -78297,0 -36710,0 -65492,2806 -86347,8294 -20977,5488 -44393,13781 -70492,24879 -26221,10976 -47198,22075 -62809,33051 -15732,11098 -33904,24880 -54881,41466 -20855,16464 -33905,38539 -39271,66101 -5244,27685 -7927,58053 -7927,91103 0,88298 5366,137936 15733,148912 355631,-165498 533446,-303433 533446,-413806zm62687 -926885c-209159,187573 -371120,391731 -486249,612476 10489,0 46954,0 109763,0l78419 16465c135984,0 222331,-22075 258796,-66224 36710,-44027 54882,-143423 54882,-297945 0,-10976 -2439,-52320 -7684,-124153 -5366,-71712 -7927,-118544 -7927,-140619zm-235258 -397341c0,110373 -91591,201476 -274529,273188 -183059,71711 -274406,223428 -274406,455149 177693,0 368558,-126837 572351,-380633 204037,-253796 305994,-474541 305994,-662113l-94152 -1109091c0,-55125 -162083,-126837 -486249,-215135l188182 -99396c-52198,-10976 -83663,-16465 -94030,-16465 -146472,0 -219769,55126 -219769,165498 0,33051 73297,88298 219769,165498 -230135,143423 -345142,297945 -345142,463443 418317,0 627476,49759 627476,149033l-203914 330995c-125618,231844 -188182,391853 -188182,480029l266601 0zm-7607897 -811024l0 1208365c0,33051 18294,63419 54881,90981 36466,27685 65248,41466 86225,41466 219525,-209768 329410,-507713 329410,-893834 0,-99396 -26099,-149033 -78419,-149033l0 -1009695c0,-22075 -23538,-52442 -70614,-91103 -46954,-38539 -96714,-68907 -148912,-90981l-78541 -33173c-146350,0 -219526,110372 -219526,331117 0,253796 5123,380755 15733,380755l203793 99274 -94030 115861zm7356906 99274c-94152,0 -151716,19392 -172571,57931 -20977,38660 -31343,102079 -31343,190377 0,88298 5244,137935 15732,149033l282334 -297945c0,-11098 -13049,-30367 -39270,-57930 -26099,-27684 -44393,-41466 -54882,-41466z"/>
   <path id="4" class="fil0" d="M42008262 45356146c-73298,-463564 -109885,-910421 -109885,-1340812 0,-662113 34026,-1666320 101957,-3012621 67931,-1346300 101958,-2383558 101958,-3111895 -146473,-640038 -219648,-1103481 -219648,-1390449 0,-231721 23538,-562717 70614,-993109 47076,-430391 70492,-766997 70492,-1009695 0,-33172 -2439,-93786 -7805,-182084 -5244,-88298 -7683,-154521 -7683,-198670 240502,-66224 512347,-99275 815536,-99275 334777,0 643210,33051 925544,99275 115007,187572 355509,571132 721507,1150435 366120,579303 664186,1075918 894322,1489724 229892,413805 428562,824927 596012,1233245 0,110250 379047,703457 1137263,1779375 758095,1075919 1210439,1613878 1356789,1613878 94152,0 141228,-772486 141228,-2317335 0,-44149 -2561,-342094 -7805,-893956 -5244,-551741 -7805,-987621 -7805,-1307640 0,-10976 -10611,-49637 -31466,-115860 -20855,-66224 -36587,-126837 -47076,-182085 -10366,-55125 -15611,-88298 -15611,-99274 0,-198670 15611,-480029 47076,-844197 31344,-364168 47077,-640039 47077,-827611 0,-342094 224769,-513202 674430,-513202 543814,0 815781,77322 815781,231722 0,44149 -10488,118665 -31465,223550 -20977,104762 -31343,173791 -31343,206842 0,55247 18293,162814 54881,322824 36709,160009 54881,284163 54881,372461 0,397219 36710,979328 109885,1746325 73175,766875 109763,1354472 109763,1762789 0,353192 -34027,874565 -101958,1564241 -67931,689675 -101957,1200072 -101957,1531189 0,1246905 31343,2113176 94152,2598693 0,11099 23538,91104 70614,240015 46954,149033 70492,273187 70492,372461 -386853,0 -784316,-71711 -1192145,-215135 -83542,-132447 -227453,-281480 -431367,-446978 -203915,-165497 -376487,-333800 -517715,-504908 -141106,-170986 -211720,-366851 -211720,-587596 -94030,0 -149033,-10977 -164644,-33051 -15732,-22075 -23660,-82810 -23660,-182084 -167327,0 -305750,-77322 -415634,-231722 -109885,-154521 -216965,-366973 -321605,-637355 -104519,-270260 -188182,-449661 -250869,-537959 -104640,0 -193426,-44149 -266723,-132325 -73175,-88298 -141106,-217940 -203915,-389048 -62809,-170986 -99396,-267577 -109763,-289652 -41832,-77322 -151716,-215257 -329410,-413805 -177937,-198671 -292944,-369657 -345143,-513202 -104518,-297945 -413073,-833099 -925543,-1605584 -512470,-772486 -831270,-1158729 -956887,-1158729 -52320,0 -104518,209769 -156839,629063 0,551740 36588,1368375 109885,2449781 73175,1081407 109763,1892553 109763,2433196 0,231843 -36588,562838 -109763,993230 -73297,430392 -109885,755899 -109885,976644 0,264772 -355509,397219 -1066649,397219 -104641,0 -261479,-33050 -470516,-99274zm1066649 -1241538c-177815,0 -313799,11098 -407951,33173 -94030,22074 -175133,80004 -243186,173791 -67931,93786 -101835,228916 -101835,405512l250991 0 501981 -496615 0 -115861zm6101953 529788l376486 82688c20977,11098 39149,2805 54881,-24758 15733,-27684 26100,-66223 31344,-115860 5366,-49759 7927,-88298 7927,-115983 0,-27563 0,-57930 0,-90981l0 -149033 -470638 215256 0 198671zm376486 -1026281l-486371 513079c167449,0 308677,-44149 423684,-132447 115007,-88298 172450,-215135 172450,-380632l-109763 0zm-596133 198548c-219526,22075 -329410,110373 -329410,264894 219647,0 329410,-88298 329410,-264894zm-6572591 -678577c0,33050 -2683,85493 -7806,157204 -5244,71712 -7927,129642 -7927,173791 0,309043 104640,463443 313799,463443 345143,0 517715,-88176 517715,-264772 0,-88298 -10489,-143424 -31466,-165498 -230014,209647 -428806,314409 -596011,314409 73175,-66223 109762,-154399 109762,-264772 0,-33173 -2683,-82810 -7805,-149033 -5244,-66224 -7927,-121349 -7927,-165498 0,-22075 49759,-160010 149033,-413805 99396,-253796 149033,-397219 149033,-430392 -240502,33173 -397462,102079 -470638,206963 -73053,104763 -109762,284164 -109762,537960zm6572591 -231722c-481005,165498 -721507,413806 -721507,744801 125495,0 279651,-82809 462711,-248307 182937,-165498 274528,-308921 274528,-430392l-15732 -66102zm376608 -297944c0,66101 -36710,165497 -109885,297944 -73175,132325 -159400,273066 -258796,421977 -99396,149033 -159522,245625 -180499,289774 648454,0 972620,-579426 972620,-1738032 0,-132447 -36588,-198670 -109763,-198670 -240624,0 -434050,168302 -580523,504908 -146228,336484 -339776,504787 -580279,504787 0,-10977 5245,-27563 15611,-49638 0,-66223 -31343,-121348 -94030,-165497 -10610,10976 -54881,35855 -133423,74394 -78297,38661 -151594,77322 -219525,115983 -68053,38539 -117690,80005 -149033,124032l376486 413927c543691,-397341 894078,-595889 1051039,-595889zm-6008045 -33173c-135862,-10976 -250869,60735 -345143,215135 -94030,154521 -141106,303555 -141106,446978 146472,0 264162,-74517 352948,-223428 88908,-149033 133301,-295262 133301,-438685zm4470757 -297945l0 331118c146228,0 308433,-71834 486249,-215257 0,-187572 -26221,-281359 -78420,-281359 -10488,0 -36587,5489 -78419,16587 -41954,10976 -78541,16464 -109885,16464l0 -281358c-94030,0 -201353,41344 -321482,124154 -120373,82687 -180377,168302 -180377,256600 0,66102 31221,115861 94030,148912 94030,0 156839,-38661 188304,-115861zm-4627596 -711750c-271845,220745 -407829,446856 -407829,678699 334654,0 501859,-121470 501859,-364168 0,-110372 -31221,-215257 -94030,-314531zm4062806 314531c0,66224 62809,99274 188182,99274 261479,0 392219,-82809 392219,-248307 0,-44149 -28661,-96591 -86225,-157205 -57564,-60735 -112446,-113177 -164766,-157326l-94030 -66224 -47198 16586 -486249 -1026281c-10488,-10976 -26099,-16464 -46954,-16464 -167449,0 -251113,176474 -251113,529666 0,253796 115007,380632 345143,380632 0,22075 -7805,69029 -23538,140741 -15611,71711 -23538,124153 -23538,157204 0,99396 47076,149034 141106,149034 94274,0 177938,-38661 251113,-115861 -62809,198670 -94152,303433 -94152,314531zm-4603936 -355875c-99396,38539 -149033,90981 -149033,157205 0,66223 31343,132447 94152,198670l392096 -413805 -109762 0c-52320,0 -128179,19269 -227453,57930zm6439168 -554546l0 827611c115129,0 240503,-44149 376608,-132447 135862,-88298 235258,-187572 298067,-297945l-376608 0c62809,-44149 128179,-113055 196231,-206841 67931,-93786 101836,-157327 101836,-190378l-596134 0zm-5898038 -413805c-282334,253796 -444417,457954 -486249,612476 345143,0 517715,-143545 517715,-430392 0,-99396 -10489,-160009 -31466,-182084zm-94030 -314531c-20977,10976 -60125,22074 -117690,33051 -57564,11098 -94152,19391 -109763,24879 -15732,5488 -44514,16587 -86346,33051 -41832,16586 -68053,33173 -78420,49759 -10488,16464 -26099,38539 -47076,66224 -20854,27562 -34026,57930 -39270,90981 -5122,33050 -10367,77199 -15611,132447 -5244,55125 -7805,115860 -7805,182084l501981 -513202 0 -99274zm6101953 314531c10488,22075 0,57930 -31343,107567 -31344,49638 -57565,74517 -78542,74517l674675 0 0 -413805c-135984,0 -261601,44149 -376608,132325 83786,-99274 190865,-270260 321605,-513080 130861,-242819 196109,-419293 196109,-529666 -115007,0 -219647,82688 -313677,248308 -94152,165497 -198793,253795 -313800,264772l0 -182084c386975,-342094 580401,-684188 580401,-1026282l-376486 0c20855,-44149 91469,-99274 211842,-165497 120129,-66224 180377,-154522 180377,-264773 0,-33172 -20855,-74516 -62687,-124153 -41832,-49759 -73297,-74517 -94274,-74517 -115007,0 -237819,74517 -368559,223428 -130739,149033 -196109,284164 -196109,405512l109763 0c0,11099 2683,27685 7927,49759 5122,21953 7805,33051 7805,33051 -10366,22075 -73175,93786 -188304,215135 -73053,209769 -109762,562839 -109762,1059454 0,176474 34026,292457 102079,347582 67931,55125 107080,99274 117568,132447zm-2792119 -297945c-94152,44149 -141228,88298 -141228,132325 0,44149 18293,102080 54881,173913 36588,71712 70614,107568 101957,107568 167327,0 250991,-171108 250991,-513202 0,-132325 -36588,-273065 -109763,-422099 -73297,-148911 -167327,-223428 -282334,-223428 -20977,0 -65491,63419 -133422,190378 -67931,126837 -122813,201353 -164644,223428 0,176596 104518,264894 313799,264894 41710,0 83542,-2805 125373,-8293 41832,-5489 78420,-13782 109763,-24880l47198 0c-20977,22075 -78541,55247 -172571,99396zm-3309834 -629062c-156839,165498 -235380,314531 -235380,446978 230136,0 345143,-77322 345143,-231721 0,-110373 -36710,-182084 -109763,-215257zm-501981 -148911c0,10976 36465,132325 109762,364168 303311,-231843 454906,-457955 454906,-678700 -376486,0 -564668,104763 -564668,314532zm3090186 -33173c0,121471 67931,220745 203915,297945 146350,-110373 219647,-297945 219647,-562717 -282334,0 -423562,88176 -423562,264772zm-376486 -695164c0,132447 31343,228916 94152,289652 62686,60735 125495,90981 188182,90981 209281,0 313677,-71712 313677,-215135 0,-132447 -115007,-270382 -345143,-413806 -167205,66224 -250868,148912 -250868,248308zm-2196108 -165498c-104519,0 -203915,46832 -298067,140618 -94152,93787 -141228,195866 -141228,306238 136106,0 243185,-41344 321727,-124153 78297,-82688 117568,-190378 117568,-322703zm-15611 -397341c-345143,0 -517714,154522 -517714,463443 20977,0 112446,-52320 274529,-157205 162083,-104762 243185,-173791 243185,-206842l0 -99396zm1835355 16587c114885,209646 193304,314531 235136,314531 94152,0 167327,-49637 219769,-149034 52198,-99274 78297,-204158 78297,-314531 -261479,0 -439172,49759 -533202,149034zm4046951 -314532c0,55248 13049,135253 39270,240015 26099,104884 49637,157326 70492,157326l109885 0 470638 -496615c-41832,-143423 -198670,-215257 -470638,-215257 -20977,0 -47076,22075 -78419,66224 -31466,44149 -60126,93786 -86347,149033 -26099,55125 -44393,88298 -54881,99274zm-6478439 0l94152 99397c52198,-33173 120129,-88298 203914,-165620 83664,-77200 169889,-173791 258675,-289652 89029,-115860 133422,-217940 133422,-306238 -94030,-154521 -141106,-386242 -141106,-695163l15611 0c0,10976 -36588,33050 -109763,66223 -73175,33051 -156839,77200 -250991,132325 -94152,55247 -162083,99396 -203914,132447l0 1026281zm2337214 -496615c0,66224 -20855,162815 -62687,289774 -41832,126837 -62809,234404 -62809,322702 407830,0 611866,-49637 611866,-148911 0,-275871 -230135,-739435 -690163,-1390450l-470638 -513202c-52320,11099 -219648,115983 -501982,314532 31344,55247 73175,137935 125496,248307 52198,110373 88907,176596 109762,198671 20977,22074 57443,49637 109885,82688 52198,33172 120129,49759 203793,49759 0,220623 18416,383437 54881,488200 36710,104884 128179,223550 274529,355875l282334 -413805c10610,55247 15733,93786 15733,115860zm4439291 -49637c0,110373 141228,165620 423562,165620 0,-496615 -41831,-744923 -125495,-744923 -198670,253796 -298067,446856 -298067,579303zm-298066 -480029l0 347582c52320,0 183059,-146106 392218,-438563 209159,-292457 313678,-460759 313678,-504908l-109763 0 -596133 595889zm-5113723 -1423500c-146350,0 -386974,137935 -721629,413805 -334532,275870 -575156,513202 -721507,711750l78420 0 1552898 -811024c-62687,-209647 -125495,-314531 -188182,-314531zm5113723 463442l0 562839 109762 0 486371 -513202 -94152 -99274 188304 -99274c10489,-11098 28782,-99396 54881,-264894 26100,-165498 39271,-286847 39271,-364168 0,-22075 -13171,-57931 -39271,-107568 -26099,-49637 -44392,-74516 -54881,-74516l-580523 0c-52198,187572 -88785,320019 -109762,397341 0,297944 99396,485517 298066,562716l-298066 0zm-5788276 -264772c-167327,0 -337215,46832 -509787,140619 -172571,93786 -258796,217939 -258796,372461l78420 0 784193 -513080 -94030 0zm-768583 -99396c0,11098 10367,30368 31344,57930 20855,27685 36587,41466 47076,41466l784193 -910420 -31221 0c-31343,-11099 -52320,-16587 -62809,-16587 -146472,0 -311116,99275 -494054,297945 -183060,198671 -274529,375267 -274529,529666zm1113726 -728336c-125495,0 -271846,176596 -439173,529788 20855,10976 36466,16464 46954,16464l109885 -66224c230014,-132325 365998,-220623 407829,-264772 0,-33172 -15732,-77199 -47076,-132447 -31465,-55125 -57564,-82809 -78419,-82809zm-1113726 -181963c0,21953 26099,88176 78420,198549l313677 -198549 -219525 -115982c-115129,0 -172572,38661 -172572,115982z"/>
   <path id="5" class="fil0" d="M53027828 45289923l-94030 99274 -784316 0 -94274 -99274 0 -1224952c0,-22075 -15611,-93786 -46954,-215135 -31343,-121471 -47076,-187572 -47076,-198671 0,-33050 15733,-234526 47076,-604182 31343,-369657 46954,-576620 46954,-620647 0,-397341 -15611,-1274589 -46954,-2631988 -31343,-1357277 -47076,-2074515 -47076,-2151837 0,-33051 2683,-88298 7805,-165498 5245,-77200 7928,-143423 7928,-198670l-94274 -1125556c-73053,-739313 -109763,-1302152 -109763,-1688394 0,-132325 386975,-198549 1160924,-198549 386852,0 580400,99274 580400,297945 0,66223 -68052,170986 -204036,314409 0,364168 47076,927007 141228,1688394 94152,761510 141106,1324226 141106,1688395 0,66223 -13050,146228 -39149,240014 -26099,93786 -39149,179279 -39149,256601 52199,551741 78298,932495 78298,1142142l0 5495453c0,88298 -26099,160010 -78298,215257 -188304,0 -350509,-104885 -486370,-314531zm-674553 -811147c41832,132447 91591,217940 149033,256601 57565,38661 154278,57930 290262,57930l345020 0c62809,-209646 94274,-424903 94274,-645526 0,-66224 -15732,-137935 -47198,-215257 -31343,-77200 -47076,-132325 -47076,-165498 0,-22074 15733,-80005 47076,-173791 31466,-93786 47198,-212452 47198,-355875 0,-275870 -52442,-413805 -156960,-413805 -10489,0 -62809,30367 -156839,90981 -94152,60735 -151717,107689 -172571,140740 20854,-33051 67930,-93786 141228,-182084 73175,-88298 141106,-182084 203914,-281359 62687,-99396 104519,-182084 125496,-248307l-752973 0c0,165497 -20976,408317 -62808,728336 -41832,320019 -62687,568327 -62687,744801 0,33173 2561,143545 7805,331118 5245,187572 7806,297944 7806,330995zm580523 -1026281c10366,0 26099,2805 46954,8293 20976,5610 36709,8293 47076,8293 -41832,0 -112446,16587 -211720,49637 -99397,33173 -159522,49638 -180377,49638 94030,-77200 193426,-115861 298067,-115861zm141106 -1953167c-104519,0 -209159,82810 -313678,248308 -104640,165498 -156839,303433 -156839,413806 240503,0 402464,-30368 486249,-91104 83664,-60613 125496,-212329 125496,-455149l-47076 -66223c-31466,-33051 -62809,-49638 -94152,-49638zm62686 -397219c-250868,0 -418196,41344 -501859,124154 -83786,82688 -125617,245503 -125617,488200l125617 0 501859 -513079 0 -99275zm-611744 -215256l109885 115860 501859 -115860 0 -579304c-261357,110373 -465272,303433 -611744,579304zm0 -993109c-52198,55125 -78419,170986 -78419,347582 0,176596 47076,264894 141228,264894 104518,0 214403,-71834 329410,-215257 115007,-143423 172571,-275870 172571,-397219l-564790 0zm0 -297945c0,77200 214403,115861 643210,115861 0,-430392 -47076,-645527 -141228,-645527l-501982 529666zm407952 -1258002c-94152,0 -196232,19269 -305994,57930 -109763,38539 -169889,90981 -180377,157205l-94152 827610c177815,-55125 353070,-179279 525519,-372339 172572,-193183 258796,-383560 258796,-571132 0,-66224 -67931,-99274 -203792,-99274zm94030 -794560c-303311,275870 -470638,474540 -501982,595889l219648 0c271967,0 407829,-93786 407829,-281358 0,-198671 -41832,-303555 -125495,-314531zm-674553 -413806l0 99274c0,88298 15732,195866 47076,322825 31465,126837 62808,190377 94152,190377 135984,0 258796,-96591 368681,-289773 109762,-193061 164644,-372340 164644,-537960 0,-66101 -78420,-99274 -235258,-99274 -209159,0 -334655,22075 -376487,66224 -41831,44149 -62808,126958 -62808,248307zm580523 -927007c-20977,22075 -96836,82810 -227453,182084 -130740,99396 -196231,176596 -196231,231722l423684 0 0 -413806zm-596134 49637c0,22075 13050,55247 39271,99396 26099,44149 49515,66224 70492,66224 104518,0 198792,-63540 282334,-190377 83663,-126959 125495,-240015 125495,-339289 -94030,0 -203914,38539 -329410,115861 -125495,77199 -188182,160009 -188182,248185zm188182 -976522l0 115861c0,22074 -57564,154521 -172571,397219 41832,11098 73175,16586 94152,16586 334654,0 501981,-149033 501981,-446978 0,-330996 -135984,-496493 -407829,-496493 -188304,0 -282334,38539 -282334,115860 0,143424 31343,281359 94030,413806l172571 -115861z"/>
   <path id="6" class="fil0" d="M55247474 40605494c0,-1732543 512347,-3225072 1537287,-4477465 1024818,-1252514 2337214,-1878771 3937189,-1878771 271967,0 460271,2805 564668,8293 104640,5488 298066,19269 580522,41344 282335,22074 491493,63418 627477,124154 135862,60735 295384,146228 478444,256600 182938,110373 313677,259284 392096,446857 78420,187572 117691,408317 117691,662113 0,77321 -20855,165497 -62809,264894 -41832,99274 -99396,148911 -172450,148911 -177815,0 -496737,-85493 -956886,-256479 -460272,-171108 -820904,-256601 -1082383,-256601 -596133,0 -1322884,170986 -2180497,513080 -1359472,529666 -2039147,2030488 -2039147,4502344 0,22075 2561,91103 7805,206964 5244,115861 7806,184767 7806,206842 62808,22074 112445,110372 149033,264894 36588,154521 62809,322824 78419,504908 15611,181962 34027,295140 55004,339289 501859,1224830 1845721,1837306 4031340,1837306 282334,0 645771,-102080 1090310,-306238 444295,-204159 708457,-306238 792120,-306238 188182,0 282335,132447 282335,397341 0,320019 -28783,609671 -86347,868955 -57443,259406 -128057,389047 -211720,389047 -41832,0 -99396,-5488 -172572,-16586l-109762 0c-1108482,209647 -1981705,314531 -2619670,314531 -41832,0 -104641,-2805 -188304,-8293 -83542,-5488 -146229,-8293 -188182,-8293 -31344,55247 -112446,104884 -243064,149033 -130739,44149 -243185,66224 -337337,66224 -1108482,-88298 -2065368,-645649 -2870661,-1671930 -805170,-1026160 -1207755,-2135251 -1207755,-3327030zm3686319 3873282c-10488,132447 195987,231721 619550,297945 423562,66223 766021,99396 1027500,99396 418318,0 865296,-35856 1341179,-107689 475760,-71712 802609,-168181 980425,-289652l0 -314409c-867979,286847 -1511189,430270 -1929507,430270 -125495,0 -423562,-38539 -894078,-115861 -146350,-33051 -635282,-179279 -1466796,-438563 -831269,-259406 -1273125,-389048 -1325323,-389048l188060 -182084c-31222,-77200 -67931,-115860 -109763,-115860 -20855,0 -52198,5488 -94030,16586 -41832,10976 -73175,16586 -94152,16586 0,-132447 -2561,-223550 -7805,-273187 -5245,-49637 -36710,-107567 -94152,-173791 -57443,-66223 -149034,-99274 -274529,-99274 94152,-55247 162083,-154522 203915,-297945 -177694,0 -266724,-121471 -266724,-364168l-313677 0c41832,-33173 96713,-63541 164766,-91103 67931,-27563 120251,-55125 156839,-82688 36587,-27685 54881,-57930 54881,-91103 0,-132447 -31343,-264772 -94152,-397219 -104519,22074 -227453,96469 -368681,223428 -141106,126959 -211720,240014 -211720,339289 0,33172 34027,154521 101957,364168 68053,209647 107324,314531 117690,314531 73298,0 167328,-44149 282335,-132447 -73176,55247 -109763,126959 -109763,215257 0,165498 23538,317214 70614,455149 46954,137935 120251,262089 219525,372462 99396,110372 193548,201353 282334,273065 88908,71712 217087,146228 384292,223550 167449,77200 295627,132325 384413,165498 88908,33051 227453,80005 415635,140618 188304,60735 308555,102079 360875,124154l15733 0c20855,0 115007,-38539 282334,-115861zm-3090308 -3062257c0,66223 13050,151838 39149,256600 26221,104885 44515,157205 55003,157205l188182 0 501982 -513080 0 -115860c-522837,0 -784316,71711 -784316,215135zm627477 -827611c-94030,0 -203915,57930 -329410,173791 -125496,115860 -193427,234526 -203915,355875 156839,0 271846,-5488 345021,-16465 73297,-11098 149155,-46954 227453,-107689 78541,-60613 117690,-157205 117690,-289652 0,-22074 -23417,-46832 -70493,-74516 -47197,-27563 -75858,-41344 -86346,-41344zm-768583 -281359l0 99275c0,275870 67931,413805 203915,413805 125495,0 329410,-170986 611744,-513080l-815659 0zm956887 -1075918c-292945,0 -504665,41344 -635404,124154 -130618,82688 -196110,262089 -196110,537959l0 82688c10489,55247 15733,88298 15733,99396 543813,-353192 815781,-634550 815781,-844197zm-31465 430392c-282335,121348 -486249,259284 -611745,413805 20855,0 62809,2683 125496,8293 62808,5488 109762,8172 141106,8172 240624,0 360875,-88177 360875,-264773 0,-88298 -5244,-143423 -15732,-165497zm0 -1109091c-146351,0 -350265,171107 -611745,513201 10489,0 31466,0 62809,0 135862,0 240502,-5610 313677,-16586 73176,-11098 143790,-46954 211842,-107568 67931,-60735 101836,-157326 101836,-289773 0,-10976 -10367,-30246 -31222,-57931 -20976,-27562 -36709,-41343 -47197,-41343zm0 -297945l-501982 0c-73175,0 -109763,121349 -109763,364168l0 132447 611745 -397341 0 -99274zm376486 -711750c-125496,33050 -287579,165497 -486249,397219 20855,22074 67931,33172 141228,33172 104518,0 190743,-35855 258796,-107567 67931,-71834 101835,-162815 101835,-273187 0,-10977 0,-16587 0,-16587l-15610 -33050zm-46954 -347582c-115129,0 -235380,41344 -360876,124153 -125495,82688 -188304,173791 -188304,273066 0,11098 5244,27562 15733,49637 10488,-10976 47076,-30368 109884,-57930 62687,-27563 112446,-52443 148912,-74395 36587,-22075 78541,-49759 125495,-82810 47076,-33173 83664,-69029 109885,-107568 26099,-38660 39271,-80004 39271,-124153zm-251113 -281481l0 231844c135984,-99397 285017,-179402 447100,-240015 162205,-60735 269284,-107689 321483,-140740 52442,-33173 99396,-115861 141228,-248308 41954,-132447 62808,-336605 62808,-612476l-972619 1009695zm1678394 -1456551c-125374,0 -229892,44149 -313678,132447 -83663,88176 -125495,204037 -125495,347582 104640,0 204037,-52442 298067,-157326 94152,-104763 141106,-212330 141106,-322703zm251112 33051l-266601 413805c188060,-198548 282334,-320019 282334,-364168 0,-10976 0,-16464 0,-16464l-15733 -33173zm1223611 -314531c-146473,0 -355632,171108 -627477,513201 230014,-11098 454905,-182084 674431,-513201l-46954 0zm2948958 364168c0,110373 68053,165620 203914,165620l0 -529788c-135861,88298 -203914,209769 -203914,364168zm-3874502 -264772l94030 215135c512470,-386243 768705,-590401 768705,-612476l-172571 0c-83664,0 -219526,57930 -407830,173791 -188304,115983 -282334,190377 -282334,223550zm3466672 -182084c-62686,110372 -94152,226233 -94152,347582 94152,0 185743,-33051 274529,-99274 88908,-66224 133301,-149034 133301,-248308 0,-99396 -34027,-179401 -101958,-240015 -67931,-60735 -148911,-91103 -243185,-91103 -31221,0 -65248,41466 -101835,124154 -36710,82810 -55004,151717 -55004,206964l188304 0zm-1819622 -132447c-94152,0 -193426,104884 -298066,314531l47076 16464c31343,0 52320,0 62686,0 115007,0 214404,-104762 298067,-314409l-46954 -16586c-31465,0 -52442,0 -62809,0zm1505823 -99274c-94030,0 -180377,63418 -258796,190255 -78420,126959 -117568,234526 -117568,322824 115007,0 209159,-49637 282334,-148911 73175,-99396 120251,-215257 141106,-347704l-47076 -16464zm-737240 -82810l-376486 397219c52320,11098 83786,16586 94152,16586 83664,0 151595,-44149 204037,-132447 52198,-88298 78297,-182084 78297,-281358zm-1364716 0c0,88298 73297,193060 219647,314531l282334 -314531 -501981 0zm1913774 -33051c-62687,0 -122934,24758 -180377,74395 -57564,49759 -101957,93786 -133423,132447 -31221,38661 -46954,52442 -46954,41344 240503,0 360754,-82688 360754,-248186zm-1019574 33051l0 115860c83542,0 146350,-38660 188182,-115860l-188182 0z"/>
   <path id="7" class="fil0" d="M67208316 45157476l-1458869 -711751 -78419 0c-62687,0 -292822,-171107 -690163,-513201 -251113,-209647 -509787,-700652 -776633,-1473138 -266601,-772485 -399902,-1379351 -399902,-1820841 0,-77200 5245,-132325 15611,-165498 -20855,0 -41832,-16586 -62687,-49637 -20977,-33173 -31343,-60735 -31343,-82810 0,-143423 28782,-375144 86225,-695164 57564,-320019 91591,-524178 102079,-612476 115007,-1092504 360631,-1953166 737239,-2582228 376365,-628941 1003841,-1235928 1882309,-1820720 10488,0 15733,0 15733,0l31343 16465c83542,0 392219,-68907 925422,-206842 533446,-137935 878467,-206964 1035306,-206964l407951 0 486249 99397c324166,66101 671870,140618 1043112,223428 371241,82688 598694,140618 682358,173791 345142,154521 543813,259284 596133,314531 784316,838587 1320324,1555947 1607780,2151837 287578,595889 431489,1390449 431489,2383558 0,353070 -23538,697969 -70614,1034574 -47076,336484 -120251,747606 -219647,1233123 -99396,485517 -164644,800049 -196109,943472 -20855,132447 -88786,273187 -203793,422098 -115129,149034 -172572,311848 -172572,488323 0,66223 -5244,104884 -15732,115860 -543813,1026281 -1835355,1539483 -3874624,1539483l-1835232 -198670zm2227451 -397219l0 198548 376486 -198548 -376486 0zm-2227451 -215257c0,11098 15610,30367 47076,57930 31343,27563 52198,41466 62686,41466 219648,0 329411,-77322 329411,-231843l-94152 0c-209037,0 -324044,44149 -345021,132447zm5317637 -1224830c-240502,10976 -389414,30246 -446978,57930 -57564,27563 -101957,99274 -133423,215135 -31343,115861 -94030,229038 -188182,339289 -261479,309043 -684919,546252 -1270564,711872 637843,0 1220927,-259406 1749008,-777974 528080,-518690 792121,-1120067 792121,-1804255 -407830,0 -611745,176474 -611745,529666l313678 0c-31344,55126 -120129,107568 -266602,157205 -146472,49637 -224769,124154 -235380,223428 0,22074 99397,137935 298067,347704zm-5960847 231721c115007,0 190865,16465 227453,49637 36710,33051 75858,82810 117690,148912 41832,66223 104640,126959 188182,182084 125495,66223 319044,113177 580401,140740 261479,27563 454905,80005 580401,157205 41832,0 151716,2805 329410,8293 177815,5610 277212,8293 298067,8293 972619,0 1683759,-140618 2133299,-422099 449783,-281358 789681,-863466 1019817,-1746324 0,-66224 2439,-275871 7684,-628941 5366,-353192 7805,-562838 7805,-629062 0,-496493 0,-811024 0,-943471 0,-132447 -15489,-433075 -46954,-902128 -31343,-468931 -81103,-816634 -149033,-1042868 -67931,-226111 -175133,-493810 -321605,-802731 -146350,-309043 -329410,-562839 -549058,-761387 -10366,10976 -31221,16464 -62686,16464 -41832,0 -319044,-90981 -831392,-273065 -512470,-182084 -799926,-273187 -862735,-273187 -94030,0 -222208,38661 -384291,115860 -162205,77322 -285017,115983 -368681,115983 -62809,0 -122812,-19391 -180377,-58052 -57442,-38539 -112445,-57931 -164766,-57931 -794682,0 -1487528,402830 -2078417,1208366 -590768,805658 -886273,1627659 -886273,2466368 0,264894 70614,844197 211842,1738031 141106,893835 274406,1340813 400024,1340813 10366,0 41832,-2805 94030,-8293 52198,-5488 88908,-8293 109762,-8293 41832,0 78542,35855 109885,107567 31344,71712 46954,140740 46954,206964 20977,44149 65492,110372 133423,198670 67931,88176 133301,165498 196109,231721 62687,66224 94030,104763 94030,115861zm-627355 264772l0 132447c104519,0 172450,-44149 203793,-132447l-203793 0zm-784315 -595889c0,66223 46954,171107 141106,314531 94152,143423 162083,215135 203915,215135 115007,0 172571,-176474 172571,-529666l-517592 0zm109763 -628941c-146473,22075 -219648,99275 -219648,231722 156839,0 235380,-55126 235380,-165498 0,-11098 -2683,-22075 -7927,-33173 -5244,-10976 -7805,-22074 -7805,-33051zm-674553 -82810c73175,44149 109884,110373 109884,198671l188061 -198671c0,-22074 -15611,-46832 -46954,-74516 -31344,-27563 -52321,-41344 -62809,-41344 -52198,0 -115007,38661 -188182,115860zm501981 -728336c-94152,0 -162205,33173 -204036,99396l204036 0 0 -99396zm7545211 -198549c0,33051 -20977,85493 -62809,157205 -41832,71712 -62687,129642 -62687,173791 177694,0 277090,-44149 298067,-132447 0,11098 15611,30368 46954,57930 31465,27685 52442,41466 62809,41466 334654,0 501981,-491127 501981,-1473259 0,-22075 -2561,-66224 -7927,-132447 -5244,-66102 -7683,-104763 -7683,-115861l-1035429 248308 360754 364168c-52198,0 -117690,16586 -195988,49637 -78541,33173 -117690,66224 -117690,99396 0,88298 73176,132325 219648,132325 41832,0 115007,-13781 219525,-41344 104641,-27562 188304,-41344 251113,-41344 -31465,66224 -138667,121349 -321727,165498 -182938,44149 -274407,121349 -274407,231721 0,55248 20855,102080 62687,140741 41832,38661 62809,63418 62809,74516zm-7859010 -927007c-104519,0 -230014,132447 -376364,397219l78419 0c62687,11099 99274,16587 109763,16587 198670,0 297945,-66224 297945,-198671 0,-143423 -36466,-215135 -109763,-215135zm-156839 -579303c-282334,10976 -423440,182084 -423440,513080 135862,0 240502,-49637 313677,-148912 73176,-99396 109763,-220745 109763,-364168zm7905964 -248308c73175,88298 188304,132447 345143,132447l156839 0c313799,0 470638,-66223 470638,-198670 0,-286969 -41832,-430392 -125496,-430392 -115007,0 -266601,57931 -454905,173791 -188304,115861 -319044,223550 -392219,322824zm580523 -761387l-690286 0c0,253796 52199,380633 156839,380633 135984,0 308433,-66224 517714,-198549 209159,-132447 313800,-275992 313800,-430391 0,-209647 -31466,-380755 -94274,-513202 -250869,0 -575035,171108 -972498,513202l768705 248307zm-8768821 -264894c0,253796 -41832,430392 -125495,529666 10488,0 26099,2805 47076,8293 20855,5489 36587,8294 47076,8294 73175,0 159400,-24880 258796,-74517 99396,-49637 149033,-118666 149033,-206842 0,-66223 -47076,-126959 -141228,-182084 -94030,-55247 -172449,-82810 -235258,-82810zm250991 -380754l188182 99396c83663,0 125495,-77322 125495,-231722 -177693,0 -282334,44028 -313677,132326zm7654973 0l188304 99396c83664,0 245747,-71712 486249,-215257 -397341,0 -622233,38661 -674553,115861zm78541 -413806c10367,11098 31344,33173 62565,66224l47198 33172 784316 0c0,-231843 -67931,-529788 -204037,-893956 -135862,-364046 -308433,-546130 -517470,-546130 -62809,0 -154400,74394 -274651,223428 -120251,148911 -180255,245502 -180255,289651 0,33051 36466,80005 109763,140740 73175,60614 120129,90982 141106,90982 20855,0 36588,-5489 47076,-16587 -73175,132447 -109885,248308 -109885,347704 62809,0 136106,-33173 219648,-99396 83663,-66224 162205,-99274 235258,-99274l-78298 99274c-62808,55247 -125495,121471 -188304,198670 -62686,77200 -94030,132447 -94030,165498zm-7623630 -413805c-94273,0 -141228,110372 -141228,331117 167328,0 308434,-38661 423563,-115860 -20977,-44149 -67931,-91103 -141228,-140741 -73176,-49637 -120252,-74516 -141107,-74516zm470517 -1009695c-41832,0 -86225,41344 -133301,124154 -47076,82809 -70614,146228 -70614,190377 156839,0 324166,-38661 501981,-115861 -10488,-33172 -57442,-74516 -141106,-124154 -83785,-49637 -136105,-74516 -156960,-74516zm6588323 -215135c0,88176 23538,179279 70492,273065 47076,93786 107324,140740 180499,140740 83664,0 159522,-33172 227453,-99396 67931,-66223 101957,-137935 101957,-215135 0,-121349 -99274,-182084 -297945,-182084 -439416,-485517 -753094,-827611 -941276,-1026281 -167327,-176596 -562107,-308921 -1184340,-397219 -622232,-88298 -1142507,-132447 -1560825,-132447 -439173,0 -658820,104762 -658820,314531 -73176,-132447 -151595,-198671 -235259,-198671 -31343,0 -138666,49637 -321604,148912 -183060,99396 -360754,195987 -533325,289773 -172571,93786 -258796,146229 -258796,157205l188182 165498 -596012 0 0 33172c73054,286847 250869,430392 533325,430392 146351,0 266602,-71834 360754,-215257 -31344,-10976 -73175,-41344 -125496,-90981 -52320,-49759 -78419,-85615 -78419,-107689 0,-77200 31343,-148912 94030,-215135 62809,0 130740,22074 204037,66223 73175,44149 162083,66224 266601,66224 115007,0 198671,-5488 250991,-16587 52320,-10976 109763,-49637 172571,-115860 62687,-66224 120251,-165498 172450,-297945 10610,88298 88907,132447 235380,132447 554301,0 831391,-110372 831391,-331117l94152 198670 -15732 16586c62808,0 177693,-44149 345142,-132447 209159,297945 486249,446857 831270,446857 146472,0 240624,-44027 282456,-132325 125495,364168 580401,706262 1364716,1026281zm-6290257 -99396c41832,44149 99397,91103 172450,140740 73297,49637 138667,88298 196231,115860 57443,27563 91347,46833 101957,57931 31222,0 73054,-30368 125496,-91103 52198,-60614 78297,-101958 78297,-124032 -198670,-66224 -423440,-99396 -674431,-99396z"/>
   <path id="8" class="fil0" d="M75137696 45107838c0,-88298 -2561,-375266 -7928,-860783 -5122,-485517 -7683,-766876 -7683,-844197 0,-452467 20855,-1142142 62687,-2069027 41832,-927007 62686,-1627659 62686,-2102200 0,-132447 -20854,-331118 -62686,-595890 -41832,-264894 -62687,-469052 -62687,-612476 0,-275870 36466,-675894 109763,-1200072 73175,-524178 109762,-913104 109762,-1167021 0,-99275 -15610,-245503 -46954,-438563 -31465,-193183 -47198,-339411 -47198,-438685 0,-297945 1291542,-446856 3874624,-446856l862735 0c533447,66101 1155557,308921 1866698,728214 711140,419416 1150313,800048 1317640,1142142 292944,209647 564790,695286 815781,1456673 250869,761388 376364,1384962 376364,1870479 0,1169704 -298067,2278795 -894078,3327029 -20855,22075 -46954,82810 -78420,182084 -31343,99397 -70614,179402 -117690,240015 -47076,60735 -107079,91103 -180376,91103l78419 99274 -188182 115861 109763 66223c-167206,253796 -470516,471736 -909811,653820 -439173,182084 -841758,311726 -1207756,389048 -418440,44149 -2065490,182084 -4941273,413805 -115129,10977 -232819,49638 -352948,115861 -120373,66224 -222331,99274 -305994,99274 -156839,0 -235258,-71711 -235258,-215135zm392097 -1638757c0,44149 36709,143424 110006,297945 0,143423 26099,380755 78298,711750 1024817,0 1610462,38661 1756935,115861 0,-77200 31343,-148912 94152,-215135 41709,0 104518,16586 188182,49637 83663,33173 151594,49637 203914,49637 271846,0 677114,-49637 1215683,-148911 538569,-99396 943838,-149034 1215683,-149034l580523 0c156839,-165497 418196,-248307 784194,-248307 0,-66102 -78420,-121349 -235258,-165498 470638,0 831391,-99274 1082382,-297945 -10489,-10976 -44515,-35856 -101957,-74516 -57565,-38539 -135984,-77200 -235259,-115861 -99396,-38539 -196231,-57930 -290261,-57930 -52198,0 -180377,88298 -384291,264894 -204037,176596 -316361,270382 -337216,281358 -156960,66224 -360875,121349 -611866,165498 -250991,44149 -447100,71833 -588206,82810 -141228,11098 -389536,22074 -745045,33050 -355631,11099 -554424,16587 -596255,16587 -585523,77322 -1066650,115860 -1443014,115860 -784316,0 -1197389,-99274 -1239221,-297944 0,-10977 -2683,-68907 -7805,-173791 -5245,-104763 -7928,-168303 -7928,-190378 0,-154399 13050,-292334 39149,-413805 26221,-121349 39393,-204159 39393,-248308 0,-209646 -57565,-347582 -172572,-413805 52198,-22075 94030,-126837 125374,-314409 31465,-187694 47198,-320020 47198,-397341 0,-121349 -13172,-284164 -39393,-488322 -26099,-204159 -39149,-355875 -39149,-455150 0,-110372 15733,-204158 47076,-281358 31466,-77322 46954,-143545 46954,-198671 0,-264894 -151594,-397341 -454905,-397341 0,904933 -41832,1511921 -125495,1820842l110006 99274 0 711872c-20977,0 -44515,13781 -70736,41344 -26099,27563 -39270,46832 -39270,57930 0,22075 18415,93787 54881,215135 36709,121471 55125,187695 55125,198671 0,11098 -18416,77200 -55125,198670 -36466,121349 -54881,193061 -54881,215135zm957008 -1969753c0,1357277 36466,2052563 109763,2085614l188182 66223c188304,33173 496737,49638 925544,49638 648331,0 1184339,-19270 1607901,-57931 423441,-38539 902006,-165498 1435331,-380632 533325,-215257 956887,-521495 1270564,-918714l31465 16586c156839,0 318800,-369778 486127,-1109091 167449,-739313 251113,-1280077 251113,-1622171 0,-286847 -102079,-758704 -305994,-1415207 -203793,-656625 -389414,-1012500 -556863,-1067625 -10488,0 -67931,-8294 -172571,-24880 -104519,-16586 -175133,-41344 -211720,-74517 -36588,-33050 -54882,-88298 -54882,-165497 0,-66224 10489,-121349 31344,-165498 -104641,-55247 -240503,-137935 -407830,-248308 -167449,-110372 -313677,-212452 -439173,-306238 -125617,-93786 -193548,-146228 -204036,-157204 -951521,-342094 -1662661,-513202 -2133299,-513202 -240503,0 -564669,33173 -972620,99396 -407829,66102 -627477,137935 -658698,215135l-109885 198671c0,606865 -18294,1520091 -54881,2739433 -36588,1219342 -54882,2138055 -54882,2756019zm5537285 1555948c62687,77200 172571,115860 329410,115860 230014,0 441856,-77199 635282,-231721 193427,-154521 290262,-353070 290262,-595889 0,-143424 -62809,-215135 -188304,-215135 167327,0 303189,-55247 407829,-165620 104641,-110372 156839,-253796 156839,-430392 0,-22074 -7684,-44027 -23416,-66101 -15733,-22075 -39271,-41466 -70614,-57931 -31344,-16586 -60126,-27684 -86225,-33172 -26221,-5488 -60247,-13782 -102079,-24880 -41710,-10976 -73175,-21952 -94030,-33051 31343,-10976 88786,-46954 172449,-107567 83786,-60735 156839,-91103 219647,-91103 41832,0 73298,5610 94152,16586 62687,-308921 94152,-529666 94152,-662113 -460149,0 -690285,77200 -690285,231721l109885 182085c-10489,33172 -39271,80004 -86225,140740 -47198,60735 -81224,96591 -102079,107567l78419 82810c-94030,0 -159522,52320 -196109,157205 -36466,104884 -57443,231721 -62687,380754 -5244,148912 -13172,240015 -23538,273066 0,22074 -34026,69028 -101957,140740 -67931,71711 -101958,113055 -101958,124154 0,33050 5244,49637 15611,49637l-674431 711750zm862735 -413806c-31343,33051 -94030,49638 -188304,49638 -135862,0 -203793,-16587 -203793,-49638 0,-22074 62687,-33050 188182,-33050 135984,0 203915,10976 203915,33050zm1113726 -3277392c-219648,0 -421001,118544 -603939,355875 -182938,237209 -274407,471736 -274407,703457 585523,0 878346,-353192 878346,-1059332zm-8407946 -1721567c0,253796 23538,615281 70614,1084211 47076,469053 70614,819440 70614,1051161l360876 0 0 -1208365c0,-88298 -41954,-165498 -125618,-231721 -83663,-66224 -167327,-110373 -250990,-132447l517714 0c0,-33173 -15733,-135130 -47076,-306238 -31466,-170986 -62809,-256601 -94030,-256601l-502104 0zm7576554 1473259c0,187573 78541,281359 235380,281359 250869,0 376364,-60736 376364,-182084 0,-22075 -104518,-88298 -313677,-198671l501981 0 0 -148911 -392097 -215257c62687,0 94030,-49637 94030,-148912 0,-44149 -67930,-88298 -203914,-132447 135984,-88298 203914,-198670 203914,-330995 0,-132447 -67930,-198671 -203914,-198671 -115129,0 -214403,38661 -298067,115861 62809,-44149 130740,-148911 203915,-314531 0,-143423 -26099,-289652 -78420,-438563 -52320,-149034 -138545,-303555 -258796,-463565 -120251,-160009 -214403,-281358 -282456,-364168 -67931,-82688 -188060,-212330 -360631,-388926 -172572,-176596 -269285,-275870 -290262,-297945l-78419 0c-20977,-11098 -83664,-30367 -188304,-57930 -104518,-27563 -203915,-55247 -297945,-82810 -94152,-27562 -156960,-46832 -188304,-57930 0,-99274 -104518,-173791 -313677,-223428 -209159,-49637 -365998,-74517 -470638,-74517 -209159,77322 -339899,149034 -392097,215257 188182,121349 423440,182084 705774,182084 0,220623 141228,330996 423562,330996 135984,0 209281,-38661 219648,-115861l0 314531 501981 0 -203915 198549c52199,-10977 193427,99396 423440,331117 230136,231722 345143,375145 345143,430392l204037 0c-10611,33051 -26221,63418 -47198,90981 -20855,27563 -47076,55247 -78297,82810 -31466,27563 -52443,52442 -62809,74517 62809,77199 141106,228916 235258,455149 94152,226233 203915,383438 329410,471736 -135862,0 -203793,60735 -203793,182084 0,99274 20855,171108 62687,215135 41710,44149 88908,63540 141106,58052 52320,-5610 99396,8171 141228,41344 41710,33051 62687,99274 62687,198549 0,11098 -36588,35977 -109763,74516 -73175,38661 -109885,63541 -109885,74517 0,10976 5367,16586 15733,16586zm-7529356 -2598815c0,44149 15489,110373 46954,198671 31344,88298 41832,187572 31344,297945 -10367,110372 -57565,248307 -141107,413805l643088 0c0,-88298 -34026,-212452 -101957,-372462 -67931,-160009 -101958,-289651 -101958,-388925 0,-66224 15733,-154522 47076,-264894 31466,-110373 46954,-204159 46954,-281359 0,-209647 -26099,-353192 -78297,-430392 -261479,110373 -392097,386243 -392097,827611zm1192145 -1539361c-31465,0 -91591,0 -180499,0 -88785,0 -151594,0 -188182,0 -36709,0 -91591,2683 -164766,8293 -73175,5489 -128178,13782 -164644,24758 -36709,11098 -83663,27563 -141228,49637 -57442,22075 -99274,49759 -125373,82810 -26343,33051 -55125,71712 -86347,115861 -31343,44149 -52320,99274 -62808,165497 -10367,66224 -15733,137936 -15733,215257 167327,0 460272,-85615 878467,-256601 418318,-171107 685042,-306237 800049,-405512l-548936 0zm2572472 115861c94152,121349 277090,182084 549058,182084 31343,0 86224,-19391 164766,-57930 78297,-38661 133178,-80005 164644,-124154 -31466,-77322 -99397,-115861 -203915,-115861 -115007,0 -209159,38539 -282456,115861l0 -231721c-31222,0 -96713,24757 -195988,74394 -99396,49759 -164644,102080 -196109,157327zm-1160802 -215257c31344,66224 120252,118666 266724,157327 146350,38538 250991,57930 313677,57930 73297,0 298067,-99396 674553,-297945l-94152 0c-62809,0 -256235,10976 -580401,33051 -324166,22074 -517592,38661 -580401,49637z"/>
   <path id="9" class="fil0" d="M88494720 38817826c83663,88298 135861,132325 156838,132325 83664,0 125496,-55126 125496,-165498l1756935 0c83663,121471 146350,237331 188060,347582l188304 -99275c-62687,66224 -94030,209647 -94030,430392 0,408317 5122,640039 15733,695164l-204037 182084c-721507,0 -1950362,44149 -3686320,132447 -10488,0 -34026,-2805 -70614,-8293 -36465,-5488 -65248,-8293 -86224,-8293 -83664,0 -125496,33173 -125496,99396l0 3078722 109763 182084c10488,22075 206598,46954 588328,74517 381608,27562 713702,41344 996036,41344 125495,0 379047,-49637 760777,-148912 381730,-99274 656259,-149033 823586,-149033 460028,0 721629,33173 784194,99396l110007 82688c10366,-66223 67930,-99274 172449,-99274 10488,0 36588,2805 78419,8293 41832,5488 83664,8293 125496,8293l-172572 82688 47076 -16464c20977,0 47076,0 78420,0 31343,0 62808,0 94152,0 177693,0 282334,33051 313799,99274 0,10976 5122,22075 15611,33051 10488,0 44515,-19270 101957,-57931 57565,-38538 91469,-57930 101957,-57930 146351,99396 219648,275870 219648,529788 0,640039 -73297,1042746 -219648,1208244 -20854,0 -94152,2805 -219525,8293 -125495,5488 -193548,8293 -204037,8293 -470638,0 -878345,-88298 -1223488,-264772l-4047073 0c-449783,0 -711140,-115983 -784315,-347704 0,-330995 15610,-833099 46954,-1506310 31343,-673089 47076,-1175193 47076,-1506188 0,-1544971 -67931,-2620890 -203915,-3227878l0 -4386361 1945117 0c198792,77199 491493,115860 878468,115860 125495,0 219647,-38661 282334,-115860 313677,0 721506,-16587 1223488,-49760 502103,-33050 773949,-49637 815781,-49637 135862,0 548935,33173 1239221,99397 41832,21952 83663,93786 125495,215134 0,154522 -23538,314532 -70614,480029 -47076,165498 -70492,314532 -70492,446857 0,11098 2561,38660 7683,82809 5367,44149 7928,77200 7928,99275l-376486 99396c-439173,-33173 -883712,-49637 -1333373,-49637 -1160802,0 -2196108,121349 -3105919,364168 -83664,187572 -125495,402707 -125495,645527 0,110372 20976,281358 62808,513079 41832,231722 62687,408318 62687,529666 -52198,452467 -88908,772486 -109763,960058l188304 198671 219526 16586c146472,10976 240502,16465 282334,16465 261479,0 504664,-21953 729434,-66102 224770,-44149 363436,-66223 415757,-66223zm2603937 5512039l0 728336c282334,0 423440,-242819 423440,-728336l-423440 0zm-188304 215135c-52198,0 -143789,27562 -274529,82810 -130617,55125 -196109,99274 -196109,132447l0 165497c261479,0 460271,-126959 596133,-380754l-125495 0zm-5035303 33172c0,44149 36587,104763 109762,182085 282456,-297945 423562,-474541 423562,-529788l-250990 0 0 -182085c-41832,22075 -135862,187695 -282334,496616l0 33172zm894078 -132447c-177694,77200 -345143,182085 -501860,314532 125496,0 216843,-19392 274407,-57931 57565,-38661 133423,-124154 227453,-256601zm423562 198671c-94152,0 -177816,38539 -250991,115861 10367,0 28783,2683 54882,8171 26099,5610 44515,8293 54881,8293 94152,0 156839,-44149 188304,-132325l-47076 0zm1113726 -215257c-313800,0 -538569,110373 -674431,331118 10366,0 54881,2683 133179,8171 78541,5610 128178,8293 149155,8293 324166,0 517592,-110251 580401,-330996l-78542 -16586c-62686,0 -99396,0 -109762,0zm909811 0c-62687,0 -172572,110373 -329411,331118 115007,0 240503,-104885 376487,-314532 -20977,-11098 -36710,-16586 -47076,-16586zm721628 -99274l-376486 314531c261479,0 454906,-66224 580401,-198671l0 198671 768583 -314531 -972498 0zm-172571 -99396c-104640,0 -172571,33172 -203915,99396 167327,0 266602,-33173 298067,-99396l-94152 0zm-3890234 -595890l0 314531c156838,0 235380,-104762 235380,-314531l-235380 0zm172571 -1340690c-146472,0 -219647,170985 -219647,513079l15610 198671 141228 0c20977,0 54882,-57931 101958,-173791 47076,-115861 70614,-201476 70614,-256601 0,-198671 -31466,-297945 -94152,-297945l-15611 16587zm125495 -629063c-156960,0 -235258,160010 -235258,480029 156839,0 235258,-160009 235258,-480029zm-298066 -380632c0,55125 36587,121348 109762,198548 83664,-33051 125618,-143423 125618,-330995 -156961,0 -235380,44149 -235380,132447zm282334 -811147c-198671,176596 -298067,314531 -298067,413806 125495,0 209159,-19270 251113,-57931 41832,-38661 62686,-118665 62686,-240014l-15732 -115861zm47076 -446856c-219648,0 -329410,82688 -329410,248186 219647,0 329410,-82688 329410,-248186zm737239 -264894l0 182084c125496,0 261479,-35856 407830,-107567 146472,-71712 219647,-168303 219647,-289652l-1098115 0c-73175,0 -109763,71712 -109763,215135l580401 0zm1427525 -347582c-188304,-11098 -363436,46832 -525519,173791 -162083,126837 -243186,278675 -243186,455149 167328,0 352949,-63418 556985,-190377 203793,-126837 347582,-267577 431246,-422099 -10367,0 -46954,-2683 -109763,-8171 -62809,-5610 -99396,-8293 -109763,-8293zm517592 16464l-486248 513202 486248 0c73176,0 109885,-171108 109885,-513202l-109885 0zm1160802 -99274c-230014,77322 -392219,242820 -486249,496615l784316 0c-115007,-143423 -214403,-309043 -298067,-496615zm-4282331 -16586c0,88298 36466,237331 109763,446978l501981 -529666 0 -132447c-407951,0 -611744,71712 -611744,215135zm611744 -811025c-125495,0 -243185,41344 -352948,124154 -109885,82810 -164766,184767 -164766,306238 345143,0 517714,-143545 517714,-430392zm-392219 -695163c-188182,0 -282334,27562 -282334,82687l0 662114c104641,0 230014,-71712 376486,-215135 146351,-143546 219526,-281481 219526,-413806 0,-22074 -39149,-46954 -117568,-74516 -78420,-27563 -143789,-41344 -196110,-41344zm329410 -744923c-177693,0 -355509,176596 -533324,529666 261357,0 415634,-24758 462710,-74517 47076,-49637 70614,-201354 70614,-455149zm-219525 -480029c-41832,55125 -120373,113055 -235380,173791 -115007,60735 -172571,151716 -172571,273187 0,10976 0,38539 0,82688l15732 66223c177816,-154521 300628,-286968 368559,-397219 68053,-110372 102079,-264894 102079,-463564 0,-10977 -2683,-52320 -7805,-124154 -5366,-71712 -7927,-113056 -7927,-124032 -31466,33051 -86347,80005 -164644,140618 -78542,60736 -146473,113178 -204037,157327 -57442,44027 -86225,77200 -86225,99274 0,88298 83664,132447 250991,132447 20855,0 47076,-2805 78419,-8293 31344,-5488 52199,-8293 62809,-8293zm0 -827611c-282456,0 -423684,110372 -423684,330995 198792,0 360875,-110372 486371,-330995l-62687 0zm0 -612476l-219647 413805 109762 0c83664,0 311117,-88298 682359,-264894 371241,-176474 562107,-292334 572595,-347581 -167327,-77200 -428806,-115861 -784316,-115861 -501981,0 -752972,5488 -752972,16586l-109762 496616c104640,0 271845,-66224 501981,-198671zm1537288 0c-41832,10976 -81103,38661 -117690,82810 -36710,44149 -60126,88176 -70614,132325l-15733 49759c0,22075 15733,33051 47198,33051 115007,0 172449,-60736 172449,-182084l-15610 -115861zm2305870 -413805c-10488,33050 -15610,71711 -15610,115860 0,143424 83541,215135 250868,215135 313800,0 470639,-110250 470639,-330995l-705897 0zm-1725469 115860l-109885 99275 109885 0 0 -99275z"/>
   <g>
    <g>
     <path class="fil1" d="M64177645 7905232c-7073,0 -14269,488 -21342,610 -7074,-122 -14269,-610 -21343,-610 -2239769,0 -4055366,1815597 -4055366,4055366 0,2239891 1815597,4055488 4055366,4055488 7074,0 14269,-487 21343,-731 7073,244 14269,731 21342,731 2239526,0 4055489,-1815597 4055489,-4055488 0,-2239769 -1815841,-4055366 -4055489,-4055366zm-8681864 13637651c3227634,-982986 4676989,-4103662 4694063,-4141591l36100 16342 0 -15976 7905476 0 0 36587c83054,170254 639673,1265320 1710347,2315993 997987,986767 2120859,1629123 3364227,1920360 862857,107202 109519,3058843 -1458137,2343190 -1315323,-447466 -2534299,-1190560 -3616437,-2212694l0 7784737 -7905476 0 0 -7845961c-1379839,1317763 -2985058,2178912 -4730163,2549056l0 -2750043z"/>
     <path class="fil2" d="M39729588 7905232c-7196,0 -14269,488 -21465,610 -7074,-122 -14147,-610 -21343,-610 -2239647,0 -4055366,1815597 -4055366,4055366 0,2239891 1815719,4055488 4055366,4055488 7196,0 14269,-487 21343,-731 7196,244 14269,731 21465,731 2239647,0 4055366,-1815597 4055366,-4055488 0,-2239769 -1815719,-4055366 -4055366,-4055366zm-5877183 11994259c1278979,-1182754 1878405,-2473929 1889382,-2498199l35977 16220 0 -15854 7905476 0 0 37441c552351,1218244 1097018,2106834 1646197,2753824 -469662,389170 -1017134,753095 -1646197,1038843l0 1094822 0 7263243 -7905476 0 0 -7845839 0 -521860c-682968,-320385 -1325811,-761632 -1925359,-1322641zm-6586 3308126c-592841,346362 -1212878,624916 -1855356,833343l0 -2235988c581011,548935 1201658,1017256 1855356,1402645zm13744730 1218610c-615403,-101469 -1245685,-281602 -1881821,-591987 -202573,-98908 -400999,-209281 -595401,-330995 884809,-443320 1715347,-1031770 2477222,-1759375l0 2682357z"/>
     <path class="fil3" d="M35777764 24073889c-1380693,-440149 -2658452,-1202634 -3787301,-2268917l0 7784859 -7905476 0 0 -7845839c-1080919,1032136 -2300138,1784376 -3616559,2239647 -1078236,678090 -2226110,-2323432 -1749984,-2280259 3674734,-734068 5312393,-4261720 5330565,-4302088l35978 16220 0 -15732 7905476 0 0 36343c82688,169645 639307,1265198 1710469,2316237 642478,630526 1336056,1120190 2076832,1467772l0 2851757zm-7662656 -16168657c-7196,0 -14269,488 -21343,610 -7195,-122 -14269,-610 -21343,-610 -2239769,0 -4055366,1815597 -4055366,4055366 0,2239891 1815597,4055488 4055366,4055488 7074,0 14148,-487 21343,-731 7074,244 14147,731 21343,731 2239647,-121 4055488,-1815597 4055366,-4055488 0,-2239769 -1815719,-4055366 -4055366,-4055366z"/>
     <path class="fil4" d="M51542250 7905232c-7195,0 -14269,488 -21342,610 -7196,-122 -14270,-610 -21343,-610 -2239769,0 -4055488,1815597 -4055488,4055366 0,2239891 1815719,4055488 4055366,4055488 7195,0 14269,-487 21465,-609 7073,122 14147,609 21342,609 2239769,0 4055367,-1815597 4055367,-4055488 0,-2239769 -1815598,-4055366 -4055367,-4055366zm-7859010 13326534c2652355,-1205072 3855599,-3795960 3871331,-3830474l35978 16220 0 -15854 7905232 0 0 36221c82322,168791 638941,1264833 1710591,2316359 907981,891030 1918652,1500823 3019572,1825232l0 2741507c-1743642,-360876 -3348494,-1210927 -4730163,-2516005l0 7784737 -7905232 122 0 -7845961c-1160070,1107872 -2479418,1893163 -3907309,2335019l0 -2847123z"/>
    </g>
    <polygon class="fil5" points="24085231,29589831 9316903,14821502 9316903,14768328 24085231,0 26157063,2018658 13354341,14821502 24084743,25507390 "/>
    <polygon class="fil5" points="68131176,29589831 82899505,14821502 82899505,14768328 68131176,0 66059344,2018658 78862188,14821502 68131664,25507390 "/>
   </g>
  </g>
 </g>
</svg>
